<svg width="50" height="55" viewBox="0 0 50 55" fill="none" xmlns="http://www.w3.org/2000/svg">
<path d="M8.10938 48.655V44.848H41.8929V48.655C41.3524 50.6854 39.8659 51.193 39.1902 51.193H10.8121C8.64991 51.193 8.10938 49.501 8.10938 48.655Z" fill="#8AD3E9"/>
<path d="M14.8661 33.4271H22.9741V32.1581H27.0282V33.4271H35.1362V32.1581H39.1902L41.8929 44.848H8.10938L10.8121 32.1581H14.8661V33.4271Z" fill="#0063BE"/>
<path d="M10.8125 24.5442V32.1582H13.5152V29.6202H14.8665V28.3512H22.9746V29.6202H24.3259V32.1582H25.6773V29.6202H27.0286V28.3512H35.1367V29.6202H36.488V32.1582H39.1907V24.5442H10.8125Z" fill="#8AD3E9"/>
<rect x="12.1641" y="23.2751" width="25.6755" height="1.26899" fill="#D9F1F8"/>
<path d="M45.946 55H44.5946H4.05436V53.731H0.000328064V52.462H50V53.731H45.946V55Z" fill="#B4A7C6"/>
<path d="M27.0278 6.77815L12.8369 1.06779C11.7093 0.587217 11.2824 0.638725 10.1351 1.0678L7.04697 2.73107C6.24594 3.03158 6.10806 4.01597 6.79516 4.49629L16.5011 11.2721L9.38961 13.9774L5.48296 12.0288C4.89913 11.7357 4.19625 11.697 3.58278 11.9278L1.25982 12.7903C0.588643 13.0426 0.350689 13.8015 0.781261 14.34L5.40792 20.1526C5.7941 20.6365 6.39076 20.9434 7.03699 20.9909L16.5011 20.4787C17.0834 20.4787 18.641 20.0115 18.9584 19.8936L37.0833 12.2872C40.4381 11.0385 44.3112 8.77659 44.9031 7.61462C45.697 6.05602 44.5409 4.23877 42.6648 4.10104L38.6762 3.80824C37.2726 3.7052 35.8574 3.90929 34.5578 4.40417L27.0278 6.77815Z" fill="#0063BE"/>
</svg>
