<svg width="470" height="450" viewBox="0 0 470 450" fill="none" xmlns="http://www.w3.org/2000/svg">
<path d="M103.921 302.06L115.353 304.584L103.921 308.063C103.207 308.278 102.563 308.693 102.058 309.261C101.553 309.83 101.206 310.531 101.055 311.289L98.1998 325.557L95.0389 311.564C94.8629 310.784 94.4802 310.071 93.9344 309.506C93.3886 308.942 92.7017 308.548 91.9517 308.37L80.5197 305.659L92.2678 302.213C92.9994 302 93.6598 301.579 94.1752 300.998C94.6906 300.417 95.0407 299.697 95.1864 298.921L97.81 285.202L100.771 298.833C100.944 299.629 101.333 300.356 101.891 300.928C102.45 301.5 103.154 301.893 103.921 302.06V302.06Z" fill="#D4E1E0"/>
<path d="M51.007 404.323L57.0023 405.64L50.9965 407.473C50.6273 407.588 50.2956 407.806 50.0374 408.104C49.7792 408.402 49.6043 408.768 49.5319 409.163L48.0252 416.648L46.371 409.294C46.2826 408.884 46.0827 408.508 45.795 408.212C45.5073 407.916 45.144 407.713 44.7484 407.626L38.7531 406.2L44.917 404.389C45.3011 404.277 45.6481 404.057 45.9196 403.753C46.1911 403.449 46.3765 403.073 46.4553 402.666L47.825 395.466L49.3739 402.622C49.4636 403.037 49.6647 403.418 49.9538 403.719C50.2429 404.02 50.6082 404.229 51.007 404.323V404.323Z" fill="#D4E1E0"/>
<path d="M135.541 290.075L139.018 290.843L135.541 291.941C135.323 292.003 135.125 292.128 134.971 292.3C134.817 292.473 134.711 292.686 134.667 292.918L133.792 297.308L132.833 293.038C132.778 292.801 132.659 292.585 132.492 292.414C132.324 292.243 132.114 292.125 131.885 292.073L128.408 291.249L131.99 290.152C132.211 290.085 132.41 289.957 132.566 289.781C132.722 289.605 132.829 289.388 132.875 289.153L133.676 284.972L134.572 289.12C134.633 289.357 134.756 289.572 134.927 289.74C135.098 289.909 135.311 290.025 135.541 290.075V290.075Z" fill="#D4E1E0"/>
<path d="M152.726 363.486L156.214 364.243L152.726 365.34C152.508 365.407 152.312 365.534 152.157 365.708C152.003 365.882 151.898 366.096 151.852 366.328L150.988 370.663L150.029 366.405C149.972 366.167 149.853 365.951 149.686 365.778C149.518 365.606 149.309 365.485 149.08 365.428L145.603 364.605L149.186 363.508C149.408 363.443 149.608 363.315 149.764 363.139C149.92 362.963 150.027 362.744 150.071 362.509L150.872 358.327L151.767 362.476C151.816 362.723 151.933 362.949 152.103 363.128C152.273 363.308 152.49 363.432 152.726 363.486V363.486Z" fill="#D4E1E0"/>
<path d="M67.8443 387.663L70.7102 388.289L67.8443 389.167C67.668 389.223 67.509 389.327 67.3833 389.468C67.2576 389.608 67.1695 389.781 67.1278 389.968L66.3903 393.546L65.6 390.034C65.5539 389.84 65.4579 389.663 65.3224 389.522C65.1868 389.381 65.0169 389.281 64.8309 389.233L61.986 388.585L64.9257 387.718C65.1085 387.663 65.2737 387.557 65.4035 387.412C65.5334 387.268 65.6231 387.089 65.6632 386.895L66.3165 383.46L67.0541 386.873C67.1036 387.067 67.2035 387.244 67.3428 387.383C67.4822 387.523 67.6557 387.62 67.8443 387.663Z" fill="#D4E1E0"/>
<path d="M258.333 421.564L261.199 422.19L258.333 423.057C258.155 423.114 257.996 423.22 257.87 423.362C257.744 423.505 257.657 423.68 257.617 423.869L256.9 427.436L256.11 423.935C256.064 423.741 255.968 423.564 255.832 423.423C255.697 423.282 255.527 423.182 255.341 423.134L252.475 422.453L255.414 421.597C255.595 421.54 255.758 421.434 255.886 421.289C256.014 421.145 256.102 420.967 256.141 420.774L256.805 417.339L257.543 420.752C257.589 420.951 257.687 421.132 257.827 421.275C257.966 421.419 258.142 421.519 258.333 421.564V421.564Z" fill="#D4E1E0"/>
<path d="M182.133 214.59L184.999 215.227L182.133 216.094C181.956 216.151 181.796 216.257 181.67 216.399C181.544 216.542 181.457 216.717 181.417 216.906L180.7 220.473L179.91 216.972C179.864 216.778 179.768 216.601 179.632 216.46C179.497 216.319 179.327 216.219 179.141 216.171L176.275 215.49L179.215 214.623C179.398 214.568 179.563 214.463 179.693 214.318C179.822 214.173 179.912 213.994 179.952 213.8L180.606 210.365L181.343 213.778C181.389 213.977 181.488 214.158 181.627 214.302C181.767 214.445 181.942 214.545 182.133 214.59Z" fill="#D4E1E0"/>
<path d="M447.515 312.277L450.381 312.914L447.515 313.781C447.338 313.838 447.178 313.944 447.052 314.086C446.926 314.229 446.839 314.404 446.799 314.593L446.082 318.16L445.292 314.659C445.245 314.464 445.147 314.286 445.01 314.144C444.872 314.003 444.7 313.904 444.512 313.858L441.657 313.177L444.597 312.31C444.78 312.261 444.945 312.158 445.074 312.015C445.203 311.871 445.289 311.691 445.324 311.498L445.987 308.052L446.725 311.465C446.771 311.664 446.869 311.845 447.009 311.988C447.149 312.132 447.324 312.232 447.515 312.277Z" fill="#D4E1E0"/>
<path d="M400.038 226.498L402.904 227.124L400.038 228.002C399.862 228.058 399.703 228.162 399.577 228.302C399.451 228.443 399.363 228.616 399.321 228.803L398.605 232.381L397.815 228.869C397.768 228.673 397.67 228.495 397.533 228.354C397.395 228.213 397.223 228.114 397.035 228.067L394.18 227.398L397.119 226.531C397.3 226.474 397.463 226.368 397.591 226.223C397.719 226.078 397.807 225.9 397.846 225.708L398.51 222.273L399.248 225.686C399.294 225.884 399.392 226.066 399.532 226.209C399.671 226.353 399.847 226.453 400.038 226.498Z" fill="#D4E1E0"/>
<path d="M301.353 61.6565L304.209 62.293L301.353 63.16C301.176 63.2175 301.016 63.3229 300.89 63.4655C300.764 63.6082 300.677 63.783 300.637 63.9722L299.92 67.539L299.13 64.038C299.083 63.8428 298.986 63.6649 298.848 63.5236C298.711 63.3823 298.538 63.2831 298.35 63.2368L295.485 62.5564L298.435 61.6894C298.616 61.6327 298.779 61.5263 298.907 61.3815C299.034 61.2367 299.123 61.0588 299.162 60.8663L299.815 57.4312L300.563 60.8443C300.609 61.0429 300.708 61.2241 300.847 61.3676C300.987 61.5111 301.162 61.6111 301.353 61.6565V61.6565Z" fill="#D4E1E0"/>
<path d="M182.207 376.008L188.002 377.292L182.207 379.048C181.845 379.161 181.519 379.374 181.264 379.664C181.008 379.953 180.831 380.309 180.753 380.694L179.299 387.916L177.697 380.826C177.607 380.431 177.413 380.071 177.138 379.784C176.863 379.498 176.517 379.296 176.138 379.202L170.332 377.83L176.296 376.074C176.665 375.965 176.998 375.752 177.26 375.46C177.522 375.168 177.702 374.807 177.782 374.417L179.109 367.458L180.606 374.373C180.698 374.775 180.897 375.141 181.18 375.431C181.463 375.72 181.819 375.92 182.207 376.008Z" fill="#D4E1E0"/>
<path d="M194.461 244.552L200.256 245.825L194.461 247.592C194.101 247.704 193.776 247.915 193.52 248.203C193.264 248.49 193.087 248.844 193.007 249.227L191.563 256.459L189.962 249.359C189.869 248.965 189.673 248.606 189.396 248.321C189.119 248.036 188.771 247.837 188.392 247.745L182.597 246.373L188.561 244.617C188.929 244.506 189.261 244.291 189.521 243.997C189.781 243.703 189.959 243.341 190.036 242.949L191.363 235.991L192.859 242.905C192.95 243.309 193.148 243.678 193.432 243.97C193.715 244.261 194.072 244.463 194.461 244.552Z" fill="#D4E1E0"/>
<path d="M275.349 25.1433L281.144 26.4164L275.349 28.1833C274.986 28.295 274.658 28.5069 274.4 28.7967C274.142 29.0864 273.964 29.4432 273.885 29.8295L272.441 37.0509L270.798 29.9502C270.705 29.5565 270.509 29.1974 270.231 28.9126C269.954 28.6278 269.607 28.4286 269.228 28.3369L263.433 26.9651L269.396 25.2091C269.763 25.0982 270.094 24.8854 270.354 24.5935C270.614 24.3015 270.793 23.9415 270.871 23.5519L272.199 16.5939L273.706 23.497C273.799 23.9068 274.004 24.2798 274.295 24.5717C274.587 24.8636 274.953 25.062 275.349 25.1433V25.1433Z" fill="#D4E1E0"/>
<path d="M441.246 173.962L451.203 176.157L441.246 179.186C440.622 179.375 440.058 179.737 439.617 180.234C439.175 180.731 438.871 181.343 438.738 182.006L436.22 194.419L433.502 182.259C433.345 181.58 433.01 180.96 432.533 180.469C432.057 179.979 431.458 179.637 430.804 179.482L420.847 177.122L431.089 174.115C431.724 173.927 432.297 173.56 432.745 173.055C433.193 172.549 433.498 171.925 433.628 171.251L435.915 159.288L438.496 171.163C438.652 171.854 438.993 172.484 439.48 172.979C439.967 173.475 440.58 173.816 441.246 173.962V173.962Z" fill="#D4E1E0"/>
<path d="M139.998 0.0329132H46.7819V101.254H139.998V0.0329132Z" fill="#D4E1E0"/>
<path d="M133.676 0.0329132H40.46V101.254H133.676V0.0329132Z" fill="#FAFAFA"/>
<path d="M133.708 101.276H40.439V0H133.708V101.276ZM40.4916 101.221H133.655V0.0768233H40.4916V101.221Z" fill="#D4E1E0"/>
<path d="M121.159 13.6417H52.9984V87.6448H121.159V13.6417Z" fill="#FAFAFA"/>
<path d="M52.9984 88.1387C52.5101 88.8781 51.9447 89.559 51.3126 90.169C50.259 91.3653 48.6996 92.9895 46.9821 94.7455C45.2647 96.5015 43.6947 98.0379 42.5252 99.1903C41.9391 99.8407 41.2771 100.412 40.5549 100.891C41.0428 100.151 41.6044 99.4673 42.2302 98.8501C43.2838 97.6538 44.8537 96.0405 46.5712 94.2736C48.2886 92.5066 49.8691 90.9811 51.0386 89.8288C51.6224 89.1832 52.2806 88.6156 52.9984 88.1387V88.1387Z" fill="#D4E1E0"/>
<path d="M121.18 87.9521C121.898 88.4542 122.556 89.0437 123.14 89.7081C124.288 90.8056 125.848 92.4298 127.533 94.2187C129.219 96.0076 130.694 97.6429 131.748 98.8501C132.371 99.4646 132.923 100.153 133.392 100.902C132.675 100.411 132.02 99.8286 131.442 99.1684C130.294 98.0709 128.735 96.4356 127.049 94.6467C125.363 92.8578 123.888 91.2006 122.771 89.9934C122.166 89.3798 121.632 88.6947 121.18 87.9521V87.9521Z" fill="#D4E1E0"/>
<path d="M120.969 13.8392C121.449 13.093 122.011 12.4079 122.644 11.7979C123.698 10.6017 125.268 8.98838 126.985 7.22144C128.703 5.45449 130.273 3.92899 131.432 2.83151C132.016 2.1761 132.678 1.6008 133.402 1.11945C132.922 1.8526 132.356 2.51999 131.716 3.10588C130.663 4.30214 129.093 5.92641 127.375 7.69335C125.658 9.4603 124.077 10.9858 122.918 12.1382C122.335 12.7828 121.681 13.3537 120.969 13.8392Z" fill="#D4E1E0"/>
<path d="M52.8088 14.0148C52.0923 13.5149 51.4346 12.9292 50.849 12.2698C49.7005 11.1724 48.1516 9.53711 46.4658 7.74822C44.78 5.95932 43.3049 4.32408 42.2512 3.11685C41.6327 2.49761 41.0815 1.80938 40.6075 1.06456C41.3256 1.5579 41.9806 2.14426 42.5568 2.80955C43.7053 3.90703 45.2647 5.54228 46.961 7.33117C48.6574 9.12007 50.122 10.7663 51.1756 11.9735C51.7952 12.5847 52.3433 13.2699 52.8088 14.0148V14.0148Z" fill="#D4E1E0"/>
<path d="M120.969 87.6448C120.961 87.5242 120.961 87.4032 120.969 87.2826C120.969 87.0302 120.969 86.69 120.969 86.251C120.969 85.3182 120.969 83.9902 120.969 82.2562C120.969 78.7442 120.969 73.6519 120.895 67.1768C120.895 54.2155 120.822 35.745 120.769 13.6417L121.032 13.9161H53.0616L53.3567 13.6088C53.3567 40.7714 53.3567 66.1781 53.3567 87.6119L53.1038 87.3375L102.32 87.4802L116.143 87.546H119.8H120.737H121.074H120.769H119.852H116.249L102.478 87.6229L52.9984 87.8753H52.6929V87.6119C52.6929 66.1781 52.6929 40.7714 52.6929 13.6088V13.2905H52.9984H120.969H121.233V13.5649C121.169 35.745 121.127 54.2704 121.096 67.2756C121.096 73.7178 121.096 78.7991 121.022 82.2891C121.022 84.0012 121.022 85.3182 121.022 86.2291C121.022 86.6571 121.022 86.9973 121.022 87.2387C121.022 87.4802 120.969 87.6448 120.969 87.6448Z" fill="#D4E1E0"/>
<path d="M98.4422 38.796H75.7045V62.4796H98.4422V38.796Z" fill="#EBEBEB"/>
<path d="M139.914 126.452H46.6976V227.672H139.914V126.452Z" fill="#D4E1E0"/>
<path d="M133.592 126.452H40.3757V227.672H133.592V126.452Z" fill="#FAFAFA"/>
<path d="M133.634 227.705H40.3547V126.43H133.634V227.705ZM40.4073 227.639H133.571V126.485H40.4073V227.639Z" fill="#D4E1E0"/>
<path d="M121.074 140.06H52.9141V214.064H121.074V140.06Z" fill="#FAFAFA"/>
<path d="M52.9141 214.557C52.428 215.302 51.8624 215.987 51.2283 216.599C50.1747 217.795 48.6153 219.408 46.8978 221.175C45.1804 222.942 43.6104 224.468 42.4409 225.565C41.8491 226.212 41.188 226.787 40.4706 227.277C40.9585 226.551 41.5241 225.884 42.1564 225.291C43.2101 224.095 44.78 222.47 46.4974 220.703C48.2149 218.936 49.7953 217.411 50.9649 216.259C51.5484 215.614 52.2026 215.043 52.9141 214.557V214.557Z" fill="#D4E1E0"/>
<path d="M121.064 214.382C121.783 214.878 122.442 215.464 123.024 216.127C124.172 217.224 125.732 218.86 127.417 220.638C129.103 222.415 130.578 224.073 131.632 225.28C132.261 225.889 132.814 226.578 133.276 227.332C132.563 226.831 131.909 226.245 131.326 225.587C130.178 224.49 128.619 222.854 126.933 221.066C125.247 219.277 123.772 217.63 122.655 216.423C122.053 215.807 121.519 215.122 121.064 214.382V214.382Z" fill="#D4E1E0"/>
<path d="M120.885 140.258C121.367 139.517 121.929 138.836 122.56 138.228C123.614 137.031 125.184 135.407 126.901 133.651C128.619 131.895 130.189 130.359 131.348 129.206C131.936 128.559 132.598 127.988 133.318 127.505C132.839 128.246 132.276 128.924 131.643 129.525C130.589 130.721 129.019 132.345 127.302 134.112C125.584 135.879 124.004 137.405 122.845 138.557C122.262 139.206 121.603 139.778 120.885 140.258Z" fill="#D4E1E0"/>
<path d="M52.6929 140.445C51.9781 139.938 51.3206 139.349 50.7331 138.689C49.5846 137.591 48.0357 135.967 46.3499 134.178C44.6641 132.389 43.21 130.754 42.1564 129.58C41.535 128.963 40.9835 128.275 40.5127 127.527C41.2244 128.029 41.8784 128.615 42.462 129.272C43.6104 130.37 45.1698 132.005 46.8662 133.794C48.5626 135.583 50.0271 137.229 51.0808 138.447C51.6941 139.042 52.2355 139.713 52.6929 140.445V140.445Z" fill="#D4E1E0"/>
<path d="M120.885 214.086C120.876 213.969 120.876 213.851 120.885 213.734C120.885 213.482 120.885 213.142 120.885 212.692C120.885 211.77 120.885 210.431 120.885 208.697C120.885 205.196 120.885 200.093 120.811 193.618C120.811 180.656 120.737 162.197 120.685 140.082L120.948 140.357H52.9773L53.2724 140.039C53.2724 167.201 53.2724 192.619 53.2724 214.042L53.0195 213.778L102.235 213.91L116.059 213.987H119.715H120.99C120.889 213.997 120.786 213.997 120.685 213.987H119.768H116.165L102.393 214.053L53.0195 214.195H52.6929V214.086C52.6929 192.663 52.6929 167.245 52.6929 140.082V139.775H52.9984H120.969H121.18V140.05C121.117 162.23 121.074 180.755 121.043 193.76C121.043 200.213 120.99 205.295 120.969 208.785C120.969 210.497 120.969 211.814 120.969 212.725C120.969 213.153 120.969 213.482 120.969 213.723C120.948 213.846 120.92 213.967 120.885 214.086V214.086Z" fill="#D4E1E0"/>
<path d="M98.3684 165.226H75.6202V188.909H98.3684V165.226Z" fill="#EBEBEB"/>
<path d="M381.357 136.68C370.19 137.253 359.14 134.092 349.821 127.659L326.641 133.541L336.735 114.884C329.665 105.092 325.944 93.1174 326.166 80.8674C326.388 68.6175 330.539 56.7972 337.958 47.2897C345.378 37.7823 355.639 31.1347 367.106 28.406C378.573 25.6773 390.587 27.0245 401.234 32.233C411.881 37.4415 420.549 46.2116 425.855 57.146C431.162 68.0805 432.803 80.5503 430.516 92.5687C428.23 104.587 422.147 115.463 413.238 123.463C404.329 131.463 393.106 136.128 381.357 136.713V136.68Z" fill="white"/>
<path d="M381.357 136.68C381.357 136.68 381.673 136.625 382.273 136.56L384.96 136.252C385.55 136.175 386.214 136.131 386.941 136.011L389.291 135.495C390.144 135.308 391.061 135.133 392.03 134.891L395.075 133.893C400.296 132.147 405.21 129.53 409.626 126.144C410.296 125.663 410.936 125.139 411.544 124.575L413.493 122.896C414.155 122.315 414.784 121.696 415.379 121.041L417.265 119.055C418.498 117.672 419.625 116.124 420.858 114.599L422.481 112.086C423.061 111.245 423.592 110.37 424.072 109.463C425.11 107.608 426.036 105.688 426.843 103.712C427.25 102.702 427.661 101.682 428.075 100.65L429.045 97.4124C429.203 96.8636 429.371 96.3149 429.54 95.7662C429.709 95.2174 429.772 94.6687 429.888 94.0651C430.109 92.9676 430.341 91.7713 430.562 90.597C430.783 89.4227 430.815 88.2265 430.941 87.0302C431.005 86.4266 431.068 85.823 431.12 85.2194C431.173 84.6158 431.12 83.9902 431.12 83.3756V79.6551C431.068 78.404 430.899 77.1529 430.794 75.8798C430.731 75.2542 430.678 74.6177 430.615 73.9812C430.551 73.3446 430.383 72.7191 430.267 72.0825C430.014 70.8204 429.761 69.5364 429.508 68.2523C428.14 63.048 426.102 58.0605 423.45 53.4254C420.57 48.6206 417.018 44.2893 412.913 40.5739C411.86 39.6739 410.806 38.6752 409.637 37.8411L406.128 35.3718C404.906 34.6365 403.631 33.9561 402.377 33.1768C402.061 33.0122 401.755 32.8147 401.429 32.661L400.438 32.222L398.447 31.344C387.295 26.5915 374.9 26.0442 363.403 29.7966L361.738 30.3344L360.905 30.5978L360.094 30.9489L356.933 32.3537L356.143 32.7159L355.384 33.1439L353.857 34C352.829 34.5574 351.833 35.1767 350.875 35.8547L348.04 37.8411C347.092 38.4996 346.27 39.3227 345.375 40.0361C339.514 45.0472 334.785 51.3415 331.523 58.4715C328.262 65.6016 326.548 73.3925 326.504 81.2904V84.4511C326.567 85.5486 326.609 86.5473 326.725 87.5789C326.918 89.6274 327.231 91.6615 327.663 93.67C329.266 101.291 332.421 108.466 336.914 114.709L337.009 114.829L336.935 114.972L326.82 133.629L326.588 133.322L349.768 127.483H349.821H349.884C353.787 130.193 358.017 132.352 362.465 133.904C365.772 135.038 369.177 135.836 372.633 136.285C374.784 136.543 376.947 136.682 379.112 136.702H380.777H381.346H380.788L379.112 136.768C376.941 136.792 374.77 136.682 372.611 136.439C364.425 135.469 356.574 132.502 349.695 127.78H349.821L326.641 133.706L326.188 133.816L326.42 133.399C329.581 127.593 332.889 121.326 336.492 114.742V114.994C331.943 108.706 328.748 101.47 327.126 93.7797C326.687 91.7531 326.367 89.7007 326.167 87.6338C326.051 86.5912 325.998 85.5376 325.935 84.4841C325.872 83.4305 325.935 82.3549 325.935 81.2794C325.978 67.6028 330.992 54.4506 339.97 44.4699C341.542 42.7314 343.221 41.1001 344.995 39.5861C345.891 38.8508 346.723 38.0167 347.682 37.3912L350.548 35.3718C351.516 34.7109 352.519 34.1064 353.551 33.561L355.089 32.6939L355.859 32.255L356.659 31.9038L359.894 30.477L360.716 30.1258L361.559 29.8515L363.245 29.3137C369.101 27.4339 375.224 26.6136 381.346 26.8883C387.285 27.2218 393.13 28.5715 398.647 30.8831L400.66 31.7721L401.661 32.2111C401.998 32.3757 402.303 32.5732 402.619 32.7488C403.894 33.4732 405.169 34.1646 406.412 34.9438L409.953 37.3912C411.122 38.2362 412.155 39.2459 413.261 40.1568C417.422 43.9019 421.016 48.2788 423.924 53.14C426.599 57.8231 428.651 62.8626 430.025 68.1206L430.783 71.9837C430.899 72.6203 431.057 73.2568 431.131 73.8934C431.205 74.5299 431.247 75.1774 431.31 75.814C431.415 77.098 431.584 78.3601 431.626 79.6222C431.668 80.8843 431.626 82.1354 431.626 83.3756C431.626 84.0012 431.626 84.6157 431.626 85.2303L431.437 87.0631C431.3 88.2704 431.226 89.4776 431.047 90.6629C430.868 91.8481 430.583 93.0005 430.351 94.1529C430.235 94.7236 430.141 95.3052 429.993 95.8649C429.846 96.4246 429.666 96.9624 429.498 97.5221C429.171 98.6196 428.834 99.7171 428.518 100.815L427.264 103.898C426.445 105.887 425.506 107.818 424.451 109.682C423.964 110.593 423.426 111.472 422.839 112.316C422.28 113.161 421.785 114.006 421.195 114.84C419.952 116.366 418.814 117.935 417.571 119.318L415.653 121.305C415.056 121.968 414.419 122.592 413.746 123.17L411.786 124.849C411.173 125.416 410.526 125.94 409.847 126.419C405.391 129.791 400.437 132.386 395.181 134.101L392.125 135.067C391.145 135.308 390.218 135.473 389.364 135.66L387.004 136.142C386.277 136.263 385.613 136.285 385.013 136.351L382.316 136.603C381.673 136.669 381.357 136.68 381.357 136.68Z" fill="#263238"/>
<path d="M383.106 55.8179C383.59 53.568 383.569 51.1097 384.792 49.233C385.397 48.2858 386.264 47.5523 387.279 47.1297C388.293 46.7071 389.407 46.6152 390.472 46.8662C391.538 47.1172 392.505 47.6993 393.246 48.5354C393.987 49.3715 394.467 50.4223 394.622 51.5487C394.959 54.1387 393.569 56.7288 393.948 59.3079C394.199 60.4631 394.713 61.5386 395.447 62.4438C396.18 63.3491 397.111 64.0577 398.162 64.5099C399.548 65.3762 401.072 65.9747 402.661 66.2769C402.798 66.2769 402.946 66.2769 403.083 66.3427C404.674 66.6024 406.134 67.4162 407.224 68.6512C408.314 69.8862 408.97 71.4695 409.085 73.1429C409.2 74.8162 408.767 76.4806 407.857 77.8647C406.946 79.2487 405.613 80.2706 404.073 80.7636C401.524 81.5977 398.036 81.3672 397.046 83.9463C396.182 86.2071 398.215 88.446 399.975 90.0373C401.734 91.6287 403.61 94.1309 402.43 96.2381C401.545 97.8185 399.437 98.0599 397.688 97.8075C395.939 97.5551 394.116 97.0173 392.483 97.6868C390.271 98.5977 389.322 101.341 389.175 103.811C389.027 106.28 389.343 108.826 388.532 111.153C387.721 113.48 385.139 115.433 383.011 114.336C379.439 112.492 381.768 105.413 378.217 103.514C376.436 102.549 374.234 103.657 372.801 105.128C371.368 106.598 370.272 108.42 368.587 109.518C367.567 110.157 366.391 110.473 365.202 110.427C364.013 110.38 362.863 109.973 361.893 109.255C360.922 108.537 360.175 107.54 359.741 106.385C359.307 105.231 359.207 103.97 359.451 102.757C359.883 100.562 361.337 98.8611 362.328 96.9185C363.318 94.976 363.74 92.364 362.328 90.7617C360.273 88.4789 356.617 90.169 353.625 89.73C349.937 89.1813 347.461 84.7914 348.23 80.9502C348.999 77.109 352.381 74.2885 356.048 73.5751C358.061 73.18 360.157 73.3446 362.159 72.8727C364.161 72.4008 366.195 71.0509 366.585 68.9547C367.08 66.211 364.635 63.8734 364.035 61.1516C363.774 59.9694 363.872 58.7319 364.315 57.61C364.758 56.488 365.524 55.5369 366.508 54.8878C367.492 54.2387 368.645 53.9236 369.808 53.986C370.971 54.0484 372.087 54.4853 373.001 55.2362C375.109 56.9483 376.32 60.3285 378.997 60.3944C381.114 60.4383 382.621 58.0567 383.106 55.8179Z" fill="#2F80ED"/>
<path d="M354.731 86.5473C354.731 86.6132 354.099 86.5473 353.235 86.0864C352.099 85.4299 351.244 84.3489 350.843 83.0616C350.442 81.7743 350.525 80.3765 351.075 79.1503C351.486 78.2284 351.971 77.8223 352.013 77.8662C352.055 77.9101 351.728 78.404 351.433 79.3039C351.031 80.456 351.01 81.7153 351.375 82.881C351.74 84.0466 352.469 85.0514 353.446 85.7352C354.194 86.2839 354.752 86.4595 354.731 86.5473Z" fill="white"/>
<path d="M363.719 107.937C363.666 107.937 363.339 107.663 362.992 106.993C362.571 106.107 362.372 105.124 362.412 104.136C362.453 103.149 362.732 102.187 363.224 101.341C363.613 100.705 363.972 100.419 364.014 100.463C363.454 101.621 363.098 102.874 362.96 104.162C362.998 105.457 363.255 106.735 363.719 107.937V107.937Z" fill="white"/>
<path d="M365.036 93.1981C364.878 93.1981 364.888 92.3201 364.656 91.3214C364.425 90.3227 364.066 89.5544 364.193 89.4666C364.319 89.3788 364.941 90.0702 365.183 91.1897C365.426 92.3091 365.183 93.22 365.036 93.1981Z" fill="white"/>
<path d="M383.833 111.394C383.685 111.394 383.38 110.681 383.148 109.704C382.916 108.727 382.863 107.915 383 107.882C383.137 107.849 383.454 108.607 383.685 109.572C383.917 110.538 383.98 111.361 383.833 111.394Z" fill="white"/>
<path d="M367.954 65.1355C367.954 65.1355 367.522 64.8501 367.09 64.1477C366.555 63.2192 366.224 62.1782 366.122 61.1001C366.02 60.022 366.149 58.9337 366.5 57.9141C366.795 57.1348 367.101 56.7397 367.154 56.8166C366.782 58.2054 366.615 59.6448 366.658 61.0858C366.889 62.4967 367.326 63.8625 367.954 65.1355V65.1355Z" fill="white"/>
<path d="M338.421 45.524L337.09 47.2541L419.205 115.777L420.535 114.047L338.421 45.524Z" fill="#263238"/>
<path d="M198.033 341.207L182.776 369.324L204.091 391.669L226.418 366.438L198.033 341.207Z" fill="#FFBE9D"/>
<path d="M66.3903 429.543L95.2707 428.83C95.2707 428.83 110.391 419.282 111.581 418.568C112.772 417.855 119.652 416.373 119.652 416.373L165.433 431.31V435.7H58.235V432.374L63.1661 431.837L66.3903 429.543Z" fill="#E0E0E0"/>
<path d="M184.451 365.34C183.587 365.198 159.29 404.641 159.29 404.641L130.262 410.183L98.0839 428.841C98.0839 428.841 97.3569 432.627 100.992 432.879C104.627 433.132 124.172 424.099 124.172 424.099C124.172 424.099 117.482 427.491 118.756 431.859C120.253 436.984 132.875 432.956 132.875 432.956L159.838 431.134C161.076 431.05 162.283 430.696 163.382 430.095C164.48 429.494 165.444 428.659 166.213 427.644L169.648 423.123L207.389 391.877C207.389 391.877 204.049 368.358 184.451 365.34Z" fill="#2F80ED"/>
<path d="M141.41 418.48C141.231 418.75 141.014 418.991 140.767 419.194C140.133 419.786 139.461 420.332 138.755 420.829C137.704 421.576 136.577 422.198 135.394 422.684C133.931 423.255 132.392 423.584 130.831 423.66C129.309 423.696 127.789 423.821 126.28 424.034C125.085 424.336 123.936 424.808 122.866 425.438C121.001 426.536 120.042 427.469 119.979 427.392C119.915 427.315 120.158 427.096 120.611 426.668C121.25 426.079 121.938 425.551 122.666 425.087C123.753 424.384 124.936 423.855 126.174 423.518C127.702 423.269 129.243 423.126 130.789 423.09C133.547 422.94 136.22 422.043 138.544 420.489C140.346 419.314 141.347 418.404 141.41 418.48Z" fill="#263238"/>
<path d="M163.147 413.827C162.999 413.827 162.641 411.632 161.45 409.13C160.651 407.661 159.93 406.148 159.29 404.597C160.399 405.863 161.296 407.314 161.945 408.888C162.773 410.389 163.189 412.097 163.147 413.827V413.827Z" fill="#263238"/>
<path d="M170.459 416.198C169.815 415.891 169.224 415.475 168.71 414.968C166.086 412.687 164.003 409.806 162.62 406.551C162.29 405.895 162.066 405.186 161.956 404.455C163.06 406.636 164.288 408.747 165.633 410.776C167.134 412.684 168.746 414.495 170.459 416.198V416.198Z" fill="#263238"/>
<path d="M179.352 408.065C179.256 407.745 179.207 407.413 179.204 407.078C179.204 406.441 179.099 405.519 179.088 404.378C179.049 401.399 179.243 398.423 179.668 395.477C180.098 392.528 180.75 389.618 181.617 386.774C181.954 385.677 182.26 384.821 182.502 384.228C182.594 383.911 182.732 383.611 182.913 383.339C182.669 384.541 182.363 385.728 181.996 386.895C180.464 392.591 179.618 398.464 179.478 404.378C179.499 405.608 179.457 406.839 179.352 408.065V408.065Z" fill="#263238"/>
<g opacity="0.3">
<path opacity="0.3" d="M181.912 386.972C179.847 393.003 179.011 399.417 179.457 405.804C181.453 399.755 182.287 393.356 181.912 386.972V386.972Z" fill="black"/>
</g>
<path d="M304.641 449.978L307.675 424.802L422.66 358.196C422.66 358.196 439.518 386.588 445.966 450L365.173 449.605L304.641 449.978Z" fill="#263238"/>
<path d="M243.751 203.78L229.084 220.769L226.66 254.594L254.877 314.856L287.235 385.797C289.9 391.888 292.587 405.925 290.691 413.904C290.691 413.904 285.422 433.22 312.164 434.504C326.746 435.206 343.52 431.211 355.753 427.403L356.069 427.304C376.989 420.859 394.647 406.126 405.253 386.269L424.019 359.282C419.868 342.458 413.482 347.045 410.964 340.691C398.826 310.17 388.838 288.122 388.838 288.122L348.63 191.631C342.614 177.463 335.028 172.272 326.188 170C319.633 168.361 312.797 168.383 306.253 170.066L286.497 175.015L243.751 203.78Z" fill="#455A64"/>
<path d="M228.125 378.521C236.364 368.644 249.725 300.545 249.725 300.545L229.084 220.769C229.084 220.769 219.538 232.084 216.577 242.905L199.276 338.244C199.276 338.244 192.954 339.615 193.017 349.723C193.028 356.528 228.125 378.521 228.125 378.521Z" fill="#455A64"/>
<path d="M265.055 336.817C264.907 336.602 264.776 336.375 264.665 336.136L263.612 334.139L259.935 326.731C256.858 320.399 252.643 311.761 247.997 302.213L236.238 277.619L232.719 270.134C232.329 269.289 232.023 268.608 231.792 268.093C231.667 267.86 231.569 267.613 231.497 267.357C231.647 267.571 231.778 267.799 231.887 268.038L232.94 270.035L236.617 277.443C239.694 283.765 243.909 292.413 248.555 301.972L260.356 326.566L263.875 334.051C264.255 334.896 264.56 335.577 264.802 336.093C264.913 336.323 264.998 336.566 265.055 336.817V336.817Z" fill="#263238"/>
<path d="M410.564 347.32C410.509 347.634 410.428 347.942 410.322 348.242L409.521 350.854L408.931 352.741C408.699 353.433 408.414 354.157 408.119 354.936C407.519 356.517 406.908 358.338 406.012 360.259C405.591 361.236 405.148 362.256 404.695 363.321C404.242 364.386 403.641 365.439 403.125 366.559C402.071 368.819 400.744 371.113 399.385 373.56C393.305 384.065 385.711 393.534 376.868 401.634C374.761 403.456 372.854 405.234 370.915 406.715C369.946 407.462 369.05 408.23 368.133 408.91C367.217 409.591 366.321 410.194 365.478 410.809C363.814 412.049 362.201 413.004 360.821 413.904C360.126 414.343 359.483 414.76 358.882 415.122L357.197 416.022L354.868 417.306C354.599 417.462 354.321 417.601 354.036 417.723C354.28 417.527 354.541 417.355 354.815 417.207L357.091 415.824L358.735 414.848C359.336 414.475 359.968 414.036 360.653 413.586C362.012 412.664 363.603 411.687 365.247 410.425L367.87 408.504C368.776 407.835 369.672 407.067 370.62 406.309C372.548 404.817 374.466 403.017 376.521 401.217C385.288 393.114 392.845 383.692 398.942 373.264C400.301 370.839 401.639 368.556 402.704 366.317C403.252 365.22 403.821 364.122 404.295 363.101L405.654 360.072C406.549 358.163 407.192 356.363 407.814 354.805C408.119 354.014 408.414 353.29 408.667 352.61L409.299 350.744L410.195 348.165C410.299 347.875 410.422 347.592 410.564 347.32V347.32Z" fill="#263238"/>
<g opacity="0.3">
<path opacity="0.3" d="M336.271 343.588C344.869 343.424 357.007 341.931 365.268 339.429C373.528 336.927 381.43 332.613 387.341 326.138C393.252 319.663 397.077 310.774 396.824 301.873C391.967 312.859 382.484 322.868 371.705 328.553C368.112 330.451 361.632 333.766 360.895 332.778L336.271 343.588Z" fill="black"/>
</g>
<path d="M298.867 329.551C300.363 327.828 337.125 299.195 337.125 299.195L367.269 332.438L316.589 354.739L298.867 329.551Z" fill="#FFBE9D"/>
<path d="M359.978 336.4C366.764 333.546 373.317 330.528 377.764 326.961C398.837 310.027 400.228 294.75 397.488 283.578C394.485 271.286 346.555 184.805 341.266 179.241C335.976 173.676 319.265 164.765 302.565 184.618C292.872 196.153 312.143 228.66 312.143 228.66L346.386 291.085C336.745 289.384 332.341 299.689 332.341 299.689L359.978 336.4Z" fill="#455A64"/>
<path d="M333.068 302.356C333.032 302.234 333.007 302.109 332.994 301.983C332.749 300.189 332.952 298.359 333.584 296.671C334.506 294.608 336.161 292.999 338.199 292.182C340.803 291.109 343.603 290.656 346.397 290.854L346.186 291.206C342.688 284.873 338.515 277.278 334.016 269.124L318.454 240.59L313.786 231.909C313.27 230.91 312.859 230.12 312.543 229.527C312.394 229.254 312.26 228.972 312.143 228.682C312.332 228.928 312.497 229.193 312.638 229.472C312.975 230.043 313.418 230.822 313.976 231.799L318.791 240.392C322.837 247.712 328.369 257.765 334.501 268.861L346.576 290.997L346.787 291.37H346.365C343.639 291.161 340.902 291.576 338.347 292.588C336.373 293.343 334.755 294.86 333.827 296.825C333.285 298.111 333.016 299.503 333.037 300.907C333.037 301.884 333.1 302.356 333.068 302.356Z" fill="#263238"/>
<path d="M395.992 279.375C396.119 279.601 396.225 279.84 396.308 280.088C396.487 280.56 396.814 281.251 397.098 282.184C397.958 284.809 398.462 287.546 398.594 290.317C398.687 292.234 398.605 294.155 398.352 296.056C398.034 298.233 397.526 300.374 396.835 302.455C396.04 304.732 395.06 306.935 393.906 309.04C392.657 311.29 391.248 313.439 389.691 315.471C384.068 322.513 377.128 328.29 369.292 332.449C366.941 333.726 364.504 334.827 362.001 335.741C361.116 336.092 360.41 336.29 359.947 336.444C359.707 336.534 359.46 336.6 359.209 336.641C359.433 336.519 359.665 336.417 359.904 336.334C360.368 336.147 361.063 335.917 361.927 335.533C364.385 334.531 366.785 333.38 369.113 332.087C376.832 327.848 383.679 322.076 389.27 315.098C390.821 313.093 392.229 310.973 393.484 308.754C394.624 306.671 395.601 304.494 396.403 302.246C397.096 300.199 397.611 298.09 397.941 295.947C398.214 294.081 398.316 292.192 398.247 290.306C398.151 287.562 397.712 284.843 396.94 282.217C396.687 281.284 396.392 280.582 396.255 280.088C396.14 279.862 396.051 279.623 395.992 279.375V279.375Z" fill="#263238"/>
<g opacity="0.3">
<path opacity="0.3" d="M346.123 291.085C349.934 291.533 353.613 292.808 356.923 294.826C360.233 296.845 363.101 299.563 365.341 302.806C365.903 303.539 366.299 304.394 366.5 305.308C366.588 305.768 366.549 306.244 366.387 306.682C366.224 307.119 365.946 307.499 365.584 307.777C365.212 307.976 364.797 308.07 364.379 308.05C363.962 308.031 363.556 307.899 363.202 307.668C362.507 307.19 361.888 306.602 361.369 305.923C356.533 300.216 352.424 295.376 346.386 291.085" fill="black"/>
</g>
<path d="M364.783 312.661C364.699 312.661 363.993 311.235 362.676 308.952C361.015 305.976 359.1 303.163 356.954 300.545C354.779 297.96 352.341 295.627 349.684 293.587C347.651 292.018 346.291 291.173 346.344 291.085C346.694 291.215 347.03 291.384 347.345 291.59C347.977 291.941 348.852 292.512 349.916 293.258C352.669 295.227 355.171 297.55 357.365 300.172C359.546 302.807 361.441 305.685 363.013 308.754C363.613 309.929 364.066 310.894 364.34 311.575C364.531 311.916 364.68 312.281 364.783 312.661V312.661Z" fill="#263238"/>
<path d="M326.641 170.033C323.815 170.143 321.016 170.645 318.317 171.525C315.406 172.523 312.677 174.026 310.246 175.97C307.242 178.31 304.781 181.325 303.046 184.79C301.312 188.255 300.348 192.082 300.226 195.988C300.076 199.173 300.45 202.362 301.332 205.415C302.178 208.229 303.387 210.909 304.925 213.383C304.925 213.383 304.778 213.23 304.546 212.911C304.198 212.443 303.875 211.956 303.577 211.452C302.46 209.608 301.582 207.619 300.964 205.536C300.018 202.446 299.598 199.207 299.72 195.966C299.82 191.976 300.792 188.063 302.563 184.523C304.334 180.984 306.857 177.912 309.941 175.542C312.431 173.594 315.225 172.109 318.201 171.152C320.198 170.511 322.266 170.142 324.354 170.055C325.092 169.989 325.661 170.055 326.051 170.055C326.246 170.024 326.444 170.016 326.641 170.033Z" fill="#263238"/>
<path d="M238.893 357.856L237.587 355.178L234.636 353.784C234.636 353.784 221.993 355.902 218.916 361.378C215.839 366.855 203.659 386.401 204.165 390.297C204.671 394.193 207.874 396.278 210.023 395.444C212.173 394.61 216.145 389.178 216.145 389.178L217.841 388.947L237.861 393.743L240.242 389.463L221.592 382.307L231.739 381.265L240.621 371.387L238.893 357.856Z" fill="#E0E0E0"/>
<path d="M257.88 390.901C257.288 392.707 257.13 394.637 257.421 396.522C257.711 398.406 258.44 400.188 259.545 401.711C262.832 406.222 267.732 413.3 272.346 419.6C275.95 424.506 300.205 437.5 313.312 444.293C315.769 445.573 318.592 445.867 321.244 445.12C323.895 444.374 326.191 442.638 327.695 440.243C332.357 432.852 336.063 424.852 338.716 416.45C339.558 413.748 339.426 410.818 338.344 408.21C337.262 405.602 335.304 403.494 332.836 402.282L276.414 374.559C274.988 373.858 273.436 373.478 271.859 373.444C270.283 373.411 268.717 373.725 267.265 374.365C265.813 375.005 264.507 375.958 263.432 377.16C262.358 378.362 261.539 379.787 261.03 381.342L257.88 390.901Z" fill="#E0E0E0"/>
<path d="M257.88 390.901C257.88 390.901 257.88 390.692 258.038 390.308L258.575 388.585C259.06 387.059 259.776 384.843 260.683 382C261.133 380.374 261.893 378.859 262.916 377.544C264.152 375.98 265.757 374.778 267.573 374.054C269.662 373.215 271.941 373.036 274.127 373.539C275.303 373.856 276.44 374.309 277.52 374.888L280.944 376.557L313.829 392.657L333.247 402.194C334.983 403.114 336.464 404.479 337.552 406.161C338.64 407.844 339.298 409.787 339.464 411.808C339.608 413.864 339.29 415.927 338.537 417.833C337.894 419.764 337.209 421.685 336.429 423.584C334.927 427.344 333.214 431.008 331.298 434.558C330.35 436.307 329.359 438.012 328.327 439.673C327.823 440.524 327.244 441.325 326.599 442.065C324.965 443.846 322.844 445.058 320.525 445.537C318.206 446.016 315.801 445.739 313.639 444.743C310.394 443.119 307.317 441.451 304.251 439.826C298.161 436.534 292.418 433.384 287.129 430.256C284.474 428.698 281.935 427.15 279.553 425.57C277.21 424.124 275.002 422.452 272.958 420.577C272.103 419.601 271.311 418.567 270.587 417.482C269.86 416.45 269.143 415.44 268.48 414.475C267.099 412.521 265.782 410.677 264.56 408.987C263.338 407.297 262.21 405.695 261.157 404.191C260.153 402.878 259.241 401.492 258.428 400.043C257.409 397.95 257.023 395.586 257.322 393.26C257.402 392.453 257.593 391.662 257.89 390.912C257.89 390.912 257.89 391.109 257.743 391.504C257.597 392.085 257.492 392.675 257.427 393.271C257.179 395.569 257.594 397.892 258.617 399.944C259.439 401.372 260.358 402.736 261.367 404.027L264.813 408.79L268.754 414.277L270.914 417.273C271.628 418.346 272.413 419.365 273.263 420.324C275.294 422.167 277.484 423.809 279.806 425.23C282.188 426.788 284.727 428.325 287.382 429.872C292.65 432.978 298.424 436.139 304.504 439.387C307.549 440.99 310.678 442.68 313.881 444.282C315.519 445.035 317.31 445.358 319.095 445.222C320.881 445.086 322.607 444.496 324.123 443.503C324.893 442.995 325.601 442.391 326.23 441.703C326.851 440.989 327.408 440.218 327.895 439.398C328.948 437.741 329.897 436.106 330.834 434.306C332.743 430.778 334.45 427.135 335.945 423.397C336.703 421.509 337.378 419.6 338.052 417.679C338.791 415.85 339.102 413.864 338.958 411.885C338.802 409.961 338.178 408.11 337.143 406.509C336.109 404.907 334.699 403.607 333.047 402.732L313.66 393.161L280.818 376.952L277.404 375.262C276.351 374.693 275.241 374.244 274.096 373.923C271.989 373.435 269.792 373.599 267.774 374.395C265.999 375.084 264.427 376.241 263.211 377.753C262.194 379.047 261.434 380.539 260.978 382.143C260.029 384.974 259.281 387.169 258.776 388.728C258.523 389.452 258.333 390.023 258.185 390.429C258.038 390.835 257.88 390.901 257.88 390.901Z" fill="#263238"/>
<path d="M235.659 367.645C235.659 367.645 236.955 357.965 240.126 356.989C243.297 356.012 263.043 349.844 263.043 349.844L317.158 311.169L338.284 353.389L288.762 374.241C288.762 374.241 286.824 376.886 284.664 375.865C284.664 375.865 281.387 380.014 279.648 380.255C277.91 380.497 278.531 381.473 278.531 381.473C278.531 381.473 264.023 406.715 260.535 407.209C257.048 407.703 252.654 407.023 252.78 404.081C252.78 404.081 246.248 406.551 244.14 403.939C244.14 403.939 239.072 407.956 235.774 403.653C234.912 402.098 234.128 400.497 233.425 398.857C233.425 398.857 229.042 404.509 225.08 402.545C221.308 400.668 222.151 394.588 224.216 390.868C226.281 387.147 235.659 367.645 235.659 367.645Z" fill="#2F80ED"/>
<path d="M215.302 390.495C215.218 390.495 214.912 389.935 214.248 389.09C212.542 386.904 210.093 385.485 207.41 385.128C206.841 385.115 206.274 385.056 205.714 384.952C206.265 384.738 206.857 384.663 207.442 384.733C208.855 384.798 210.234 385.204 211.471 385.921C212.707 386.637 213.766 387.643 214.565 388.859C214.931 389.336 215.184 389.896 215.302 390.495Z" fill="#263238"/>
<path d="M232.266 374.252C231.438 375.056 230.55 375.789 229.611 376.447C227.946 377.753 225.628 379.52 223.215 381.66C221.145 383.478 219.231 385.479 217.494 387.641C216.177 389.309 215.481 390.429 215.386 390.385C215.479 390.079 215.618 389.79 215.797 389.529C216.219 388.787 216.683 388.072 217.188 387.389C218.853 385.128 220.75 383.063 222.846 381.232C224.931 379.402 227.112 377.695 229.379 376.118C230.288 375.41 231.254 374.786 232.266 374.252V374.252Z" fill="#263238"/>
<path d="M279.037 418.612L294.631 387.696L322.774 401.085L304.419 434.833L279.037 418.612Z" fill="white"/>
<path d="M260.419 391.713C260.242 392.433 259.969 393.124 259.608 393.765C258.833 395.367 257.964 396.917 257.005 398.407C256.04 399.895 254.984 401.318 253.844 402.666C253.414 403.263 252.899 403.788 252.317 404.224C252.19 404.114 254.308 401.546 256.531 398.089C258.754 394.632 260.261 391.636 260.419 391.713Z" fill="#263238"/>
<path d="M250.083 392.141C249.613 394.371 248.813 396.511 247.712 398.484C246.751 400.534 245.493 402.418 243.982 404.07C243.845 403.961 245.542 401.491 247.228 398.21C248.913 394.928 249.925 392.086 250.083 392.141Z" fill="#263238"/>
<path d="M238.535 390.023C238.014 391.68 237.307 393.268 236.428 394.753C235.702 396.339 234.664 397.748 233.383 398.89C233.277 398.781 234.647 396.981 235.954 394.5C237.26 392.02 238.377 389.935 238.535 390.023Z" fill="#263238"/>
<path d="M277.625 373.989C277.625 374.142 271.862 372.672 264.834 370.696C257.806 368.721 252.19 366.987 252.19 366.844C252.19 366.701 257.954 368.161 264.982 370.136C272.009 372.112 277.667 373.835 277.625 373.989Z" fill="#263238"/>
<path d="M275.223 368.83C274.524 368.772 273.838 368.602 273.189 368.325C271.584 367.797 270.015 367.159 268.49 366.416C266.962 365.68 265.481 364.844 264.054 363.914C263.437 363.571 262.872 363.135 262.379 362.619C262.463 362.476 265.182 364.199 268.701 365.911C272.22 367.623 275.265 368.611 275.223 368.83Z" fill="#263238"/>
<g opacity="0.3">
<path opacity="0.3" d="M284.653 372.672C284.411 372.189 284.253 371.695 284.021 371.201C281.532 365.936 277.994 361.286 273.643 357.559C273.242 357.219 272.705 356.868 272.252 357.131C272.084 357.247 271.958 357.418 271.895 357.617C271.832 357.816 271.835 358.032 271.904 358.229C272.033 358.618 272.245 358.97 272.526 359.26C276.456 364.067 279.617 368.666 283.547 373.473C283.842 373.879 284.917 373.22 284.653 372.672Z" fill="black"/>
</g>
<path d="M191.426 414.003C191.938 413.13 192.523 412.308 193.176 411.544C194.303 410.074 195.894 408.065 197.685 405.87C199.476 403.675 201.109 401.711 202.311 400.306C202.921 399.507 203.606 398.771 204.355 398.111C203.848 398.987 203.262 399.81 202.606 400.569C201.478 402.04 199.887 404.048 198.107 406.243C196.326 408.438 194.682 410.403 193.471 411.797C192.854 412.594 192.17 413.333 191.426 414.003V414.003Z" fill="#263238"/>
<path d="M195.725 429.631C195.588 429.631 197.906 423.046 200.899 414.99C203.891 406.935 206.43 400.493 206.567 400.559C206.704 400.624 204.397 407.143 201.405 415.199C198.412 423.254 195.873 429.697 195.725 429.631Z" fill="#263238"/>
<path d="M209.212 420.983C208.965 417.543 208.902 414.091 209.022 410.644C208.966 407.194 209.089 403.743 209.391 400.306C209.638 403.746 209.701 407.197 209.581 410.644C209.638 414.095 209.515 417.546 209.212 420.983V420.983Z" fill="#263238"/>
<path d="M175.369 136.658C175.369 131.072 177.076 129.184 175.822 128.142C171.333 124.399 167.33 114.566 166.961 110.198C166.107 99.9256 174.442 90.8933 174.442 90.8933C175.991 85.4059 178.129 78.1296 184.388 73.0812C191.174 67.5938 201.805 61.0748 210.308 62.2162C218.811 63.3575 224.953 63.9063 230.39 70.8094L218.516 180.47C211.92 180.261 206.051 175.926 201.573 170.867C197.095 165.807 193.555 159.892 188.929 155.03C185.452 151.397 184.715 152.89 178.73 144.648C175 139.523 175.316 141.784 175.369 136.658Z" fill="#263238"/>
<path d="M259.555 103.174C252.116 80.9611 233.499 66.9573 212.394 75.3201L210.487 76.22C201.229 80.5491 193.876 88.3507 189.891 98.0718C185.906 107.793 185.581 118.721 188.982 128.68C195.525 147.886 202.996 169.001 207.4 178.889C216.514 199.357 237.66 193.321 237.66 193.321L246.638 211.1C255.966 213.027 265.648 211.385 273.908 206.476C282.168 201.568 288.452 193.721 291.607 184.377V184.377L259.555 103.174Z" fill="#FFBE9D"/>
<path d="M203.196 144.22C203.531 144.98 204.131 145.579 204.875 145.895C205.618 146.211 206.45 146.22 207.2 145.921C207.571 145.782 207.913 145.567 208.204 145.288C208.495 145.01 208.73 144.674 208.894 144.3C209.059 143.926 209.151 143.521 209.164 143.11C209.177 142.699 209.111 142.289 208.97 141.904C208.635 141.144 208.034 140.545 207.291 140.229C206.547 139.913 205.716 139.904 204.966 140.203C204.594 140.342 204.253 140.558 203.962 140.836C203.671 141.114 203.436 141.45 203.271 141.824C203.106 142.198 203.015 142.603 203.002 143.014C202.989 143.426 203.055 143.835 203.196 144.22V144.22Z" fill="#263238"/>
<path d="M197.042 136.922C197.559 137.141 198.992 134.496 202.026 133.081C205.061 131.665 207.979 132.214 208.137 131.676C208.232 131.423 207.579 130.897 206.283 130.578C204.563 130.243 202.786 130.469 201.194 131.226C199.61 131.961 198.292 133.203 197.432 134.771C196.779 135.989 196.758 136.834 197.042 136.922Z" fill="#263238"/>
<path d="M230.875 132.104C231.2 132.87 231.798 133.475 232.543 133.791C233.288 134.106 234.122 134.107 234.868 133.794C235.241 133.657 235.583 133.444 235.874 133.167C236.166 132.89 236.402 132.554 236.567 132.181C236.732 131.807 236.823 131.403 236.835 130.992C236.848 130.581 236.781 130.172 236.638 129.788C236.318 129.018 235.721 128.408 234.974 128.09C234.228 127.772 233.392 127.771 232.645 128.087C232.272 128.225 231.93 128.439 231.638 128.717C231.346 128.996 231.111 129.332 230.946 129.706C230.781 130.081 230.69 130.486 230.678 130.897C230.665 131.309 230.732 131.719 230.875 132.104V132.104Z" fill="#263238"/>
<path d="M225.27 123.126C225.775 123.357 227.272 120.756 230.348 119.428C233.425 118.1 236.312 118.714 236.491 118.177C236.586 117.935 235.954 117.398 234.668 117.079C232.955 116.693 231.168 116.874 229.558 117.595C227.135 118.791 225.586 120.394 225.702 121.019C225.059 122.183 225.027 122.995 225.27 123.126Z" fill="#263238"/>
<path d="M226.755 152.001C226.692 151.814 224.648 152.352 221.424 153.373C220.612 153.658 219.812 153.834 219.443 153.373C219.019 152.565 218.84 151.644 218.927 150.728C218.821 148.434 218.695 146.031 218.568 143.507C217.989 133.256 217.188 124.981 216.788 125.003C216.387 125.025 216.556 133.366 217.135 143.66C217.304 146.173 217.452 148.577 217.61 150.871C217.541 152.073 217.88 153.262 218.568 154.229C218.803 154.465 219.086 154.642 219.397 154.745C219.708 154.848 220.037 154.874 220.36 154.822C220.838 154.739 221.305 154.595 221.75 154.394C224.911 153.066 226.829 152.188 226.755 152.001Z" fill="#263238"/>
<path d="M222.024 119.988C222.931 120.317 224.722 117.365 227.577 114.5C230.432 111.636 233.267 109.858 232.972 108.903C232.814 108.464 231.813 108.332 230.327 108.771C228.405 109.397 226.656 110.497 225.227 111.976C223.763 113.416 222.651 115.2 221.982 117.178C221.519 118.758 221.603 119.812 222.024 119.988Z" fill="#263238"/>
<path d="M194.809 128.295C195.515 129.042 198.054 128.054 201.131 127.813C204.207 127.571 206.915 127.966 207.452 127.11C207.695 126.693 207.231 125.925 206.03 125.255C204.392 124.438 202.568 124.112 200.762 124.312C198.96 124.441 197.231 125.103 195.778 126.221C194.809 127.099 194.493 127.933 194.809 128.295Z" fill="#263238"/>
<path d="M230.39 70.8094C229.716 70.5351 229.021 70.2607 228.283 70.0083C222.404 67.8133 215.797 66.6061 210.74 70.151C207.832 72.1813 205.977 75.5176 203.185 77.7346C199.413 80.7307 194.398 81.3672 190.246 83.7597C187.763 85.2193 185.65 87.2753 184.083 89.7568C182.516 92.2383 181.541 95.0736 181.238 98.027C180.806 102.614 181.975 107.575 179.91 111.636C178.951 113.523 175.696 114.84 174.568 116.607C174.568 116.607 172.556 131.533 183.545 130.875L184.925 129.656L195.704 114.807C199.297 113.545 202.996 112.613 204.565 109.177C205.619 106.906 205.324 104.162 205.472 101.616L211.235 94.4821C213.058 94.0102 215.07 93.8346 216.883 93.3846C219.029 92.8787 221.055 91.9271 222.84 90.5868C224.625 89.2464 226.132 87.5449 227.271 85.5839C228.41 83.6228 229.158 81.4427 229.469 79.1737C229.781 76.9048 229.65 74.5938 229.084 72.3788L230.39 70.8094Z" fill="#263238"/>
<path d="M212.331 87.9302C214.754 85.8669 219.643 81.4879 220.096 78.3272C221.087 71.4679 225.238 65.2343 231.181 62.9625C234.283 61.8704 237.641 61.8533 240.754 62.9135C243.867 63.9738 246.566 66.0546 248.45 68.845C255.488 65.772 264.255 67.3085 270.429 72.7081C273.541 75.5004 275.953 79.0402 277.456 83.0214C278.96 87.0026 279.51 91.3054 279.058 95.5576C278.795 97.7526 278.268 100.035 279.058 102.143C280.112 104.711 282.714 105.918 284.864 107.465C290.733 111.669 293.725 119.702 293.599 127.22C293.472 134.738 292.482 137.756 289.163 140.719C282.651 146.536 296.665 160.122 284.158 165.709L261.462 119.746L261.41 119.834C260.96 120.707 260.282 121.43 259.454 121.917C258.626 122.405 257.682 122.638 256.731 122.589C244.088 121.744 244.899 107.926 247.417 105.325C243.643 104.201 240.021 102.582 236.638 100.507C233.298 98.3123 227.63 93.9882 226.471 89.9276C223.9 91.1677 211.267 88.8301 212.331 87.9302Z" fill="#263238"/>
<path d="M261.494 119.625C261.768 119.318 273.274 109.101 278.911 123.379C284.548 137.657 269.618 140.598 269.428 140.203C269.238 139.808 261.494 119.625 261.494 119.625Z" fill="#FFBE9D"/>
<path d="M271.483 133.004C271.483 132.927 271.788 133.07 272.273 133.091C272.94 133.1 273.585 132.84 274.074 132.367C275.297 131.193 275.571 128.274 274.622 125.673C274.17 124.422 273.449 123.296 272.515 122.38C272.206 121.997 271.813 121.698 271.369 121.507C270.925 121.316 270.444 121.239 269.965 121.283C269.66 121.323 269.378 121.474 269.168 121.708C268.958 121.943 268.834 122.247 268.817 122.567C268.817 123.039 268.996 123.291 268.933 123.346C268.869 123.401 268.543 123.236 268.416 122.6C268.364 122.222 268.431 121.837 268.606 121.502C268.868 121.043 269.291 120.708 269.786 120.569C270.39 120.438 271.015 120.47 271.604 120.663C272.192 120.855 272.723 121.2 273.147 121.667C274.22 122.651 275.045 123.895 275.55 125.288C276.603 128.208 276.245 131.5 274.496 132.971C274.172 133.238 273.795 133.426 273.392 133.523C272.989 133.62 272.571 133.622 272.167 133.53C271.641 133.333 271.44 133.048 271.483 133.004Z" fill="#EB996E"/>
<path d="M225.343 164.776C225.48 165.072 227.914 164.183 230.791 162.8C233.667 161.417 235.89 160.057 235.764 159.76C235.637 159.464 233.204 160.353 230.327 161.747C227.451 163.14 225.217 164.49 225.343 164.776Z" fill="#263238"/>
<path d="M237.66 193.321C237.66 193.321 254.614 182.346 261.726 169.177C261.726 169.177 263.949 189.184 241.043 199.983L237.66 193.321Z" fill="#EB996E"/>
<path d="M220.886 121.963C220.886 122.018 220.602 122.259 219.991 122.336C219.593 122.377 219.192 122.333 218.812 122.207C218.431 122.08 218.079 121.874 217.778 121.601C217.483 121.322 217.245 120.984 217.079 120.606C216.912 120.229 216.82 119.821 216.809 119.406C216.809 118.769 216.998 118.418 217.062 118.44C217.125 118.462 217.062 118.824 217.199 119.362C217.293 120.066 217.625 120.711 218.135 121.184C218.644 121.656 219.298 121.925 219.98 121.941C220.507 121.963 220.855 121.897 220.886 121.963Z" fill="#EB996E"/>
<path d="M212.626 126.891C212.626 126.825 212.784 126.518 212.984 125.969C213.262 125.276 213.356 124.518 213.258 123.774C213.145 123.032 212.851 122.333 212.405 121.744C212.057 121.283 211.762 121.052 211.815 120.975C211.867 120.898 212.215 121.041 212.689 121.469C213.295 122.056 213.689 122.841 213.806 123.694C213.923 124.547 213.756 125.416 213.332 126.155C213.005 126.704 212.678 126.935 212.626 126.891Z" fill="#EB996E"/>
<path d="M269.997 259.587L275.781 260.871L269.986 262.638C269.626 262.751 269.301 262.962 269.045 263.249C268.79 263.537 268.612 263.89 268.532 264.273L267.089 271.495L265.529 264.405C265.438 264.009 265.243 263.648 264.966 263.361C264.688 263.074 264.34 262.873 263.959 262.781L258.164 261.409L264.128 259.664C264.484 259.539 264.802 259.318 265.048 259.023C265.294 258.728 265.461 258.369 265.529 257.985L266.857 251.027L268.364 257.941C268.456 258.349 268.66 258.721 268.949 259.013C269.238 259.305 269.602 259.504 269.997 259.587Z" fill="white"/>
<path d="M256.837 277.794L259.418 278.365L256.837 279.144C256.675 279.195 256.529 279.29 256.414 279.419C256.299 279.548 256.22 279.707 256.184 279.88L255.541 283.095L254.824 279.934C254.786 279.757 254.701 279.595 254.578 279.467C254.455 279.339 254.299 279.25 254.129 279.21L251.548 278.606L254.203 277.827C254.367 277.776 254.516 277.68 254.633 277.549C254.749 277.417 254.83 277.256 254.867 277.081L255.457 273.986L256.12 277.059C256.159 277.24 256.247 277.406 256.375 277.537C256.502 277.667 256.662 277.757 256.837 277.794V277.794Z" fill="white"/>
<path d="M334.206 189.414L336.788 189.985L334.206 190.764C334.044 190.815 333.898 190.91 333.783 191.039C333.668 191.168 333.589 191.327 333.553 191.499L332.91 194.715L332.194 191.554C332.156 191.377 332.07 191.215 331.947 191.087C331.824 190.958 331.668 190.869 331.498 190.83L328.917 190.226L331.572 189.447C331.738 189.398 331.887 189.303 332.005 189.171C332.122 189.039 332.202 188.877 332.236 188.701L332.826 185.606L333.49 188.679C333.528 188.86 333.617 189.026 333.744 189.157C333.871 189.287 334.031 189.376 334.206 189.414V189.414Z" fill="white"/>
<path d="M470 449.144C470 449.298 364.772 449.429 235.037 449.429C105.301 449.429 0 449.298 0 449.144C0 448.99 105.207 448.859 235.037 448.859C364.867 448.859 470 448.946 470 449.144Z" fill="#263238"/>
<path d="M316.579 433.702H29.3125V449.177H316.579V433.702Z" fill="#455A64"/>
<path d="M314.545 433.702H233.499V449.177H314.545V433.702Z" fill="#263238"/>
<path d="M47.8566 449.188C47.7302 448.969 47.6176 448.742 47.5195 448.507C47.3087 448.068 47.0032 447.41 46.6028 446.653C44.5371 442.604 41.8013 438.966 38.5213 435.908C37.8891 435.316 37.3728 434.811 37.0146 434.537C36.8137 434.387 36.6299 434.214 36.4667 434.021C36.6758 434.157 36.8764 434.308 37.0673 434.471C37.4466 434.756 37.984 435.206 38.6161 435.788C41.9756 438.795 44.7356 442.461 46.7398 446.576C47.1191 447.366 47.4141 448.014 47.5932 448.475C47.6963 448.706 47.7843 448.944 47.8566 449.188Z" fill="#263238"/>
<path d="M69.6144 449.462C68.1979 449.475 66.7844 449.324 65.3998 449.012C63.9377 448.688 62.5061 448.229 61.122 447.64C59.4063 446.891 57.7653 445.969 56.2226 444.886C53.4332 442.891 51.0011 440.402 49.0367 437.533C48.2331 436.35 47.5281 435.098 46.9294 433.79C46.9294 433.79 46.9926 433.878 47.0875 434.043C47.1823 434.207 47.3614 434.515 47.5195 434.789C48.034 435.7 48.5932 436.583 49.1948 437.434C51.1823 440.255 53.6115 442.707 56.3806 444.688C57.9076 445.766 59.5307 446.689 61.2274 447.443C62.6174 448.043 64.056 448.514 65.5263 448.848C66.0894 448.988 66.6591 449.098 67.2332 449.177C67.6649 449.261 68.1013 449.316 68.5397 449.342L69.3615 449.418L69.6144 449.462Z" fill="#263238"/>
<path d="M89.7074 441.582C89.7074 441.582 88.4115 441.736 86.0513 441.758C84.8712 441.758 83.4277 441.758 81.7524 441.615C80.92 441.549 80.0244 441.462 79.0762 441.341L77.6221 441.132C77.1053 441.077 76.5982 440.948 76.1154 440.748C75.8544 440.659 75.6135 440.516 75.407 440.328C75.2006 440.139 75.0329 439.909 74.9142 439.651C74.8163 439.353 74.8103 439.031 74.8973 438.73C74.9842 438.429 75.1597 438.164 75.3989 437.972C75.8842 437.603 76.4421 437.352 77.0321 437.236C77.6116 437.072 78.2016 436.907 78.8127 436.775C84.2594 435.48 89.8965 435.305 95.4077 436.26C96.9421 436.507 98.4565 436.874 99.9383 437.357C100.721 437.616 101.39 438.157 101.824 438.883C102.012 439.269 102.12 439.693 102.14 440.126C102.16 440.559 102.092 440.992 101.94 441.396C101.674 442.216 101.155 442.922 100.465 443.404C99.7908 443.86 99.0403 444.18 98.2525 444.348C96.7142 444.699 95.1969 444.974 93.7008 445.237C90.8165 445.749 87.9013 446.05 84.9766 446.137C80.0088 446.364 75.0596 445.368 70.5311 443.229C67.4871 441.767 64.7702 439.659 62.555 437.039C61.9548 436.348 61.402 435.615 60.9008 434.844C60.5531 434.295 60.3845 434.01 60.3845 434.01C60.3845 434.01 60.5847 434.284 60.9324 434.811C61.4478 435.58 62.011 436.313 62.6182 437.006C64.8578 439.555 67.5762 441.599 70.6048 443.009C75.1193 445.116 80.0455 446.089 84.9871 445.852C87.8977 445.755 90.7985 445.45 93.6692 444.941C95.1653 444.677 96.6931 444.392 98.2104 444.052C98.96 443.884 99.6741 443.575 100.318 443.141C100.965 442.68 101.453 442.014 101.708 441.242C101.847 440.867 101.908 440.467 101.888 440.066C101.868 439.665 101.767 439.273 101.593 438.915C101.189 438.231 100.56 437.724 99.8225 437.489C98.3535 437.011 96.8534 436.644 95.3339 436.391C89.8515 435.449 84.2463 435.613 78.8233 436.874C78.2122 437.006 77.6221 437.17 77.0532 437.324C76.4819 437.43 75.9414 437.67 75.4727 438.026C75.2628 438.197 75.1079 438.43 75.0288 438.695C74.9497 438.96 74.9502 439.244 75.0302 439.508C75.2289 440.004 75.6076 440.399 76.0838 440.606C76.5569 440.799 77.0532 440.925 77.5589 440.979L79.0129 441.198C79.9507 441.319 80.8463 441.418 81.6787 441.484C83.3434 441.626 84.8396 441.67 85.967 441.67C87.0944 441.67 88.0743 441.67 88.6749 441.615L89.7074 441.582Z" fill="#263238"/>
<path d="M140.567 434.756H140.167C139.903 434.756 139.524 434.668 139.029 434.679C137.634 434.639 136.24 434.802 134.888 435.162C132.882 435.706 130.946 436.502 129.124 437.533C126.895 438.804 124.735 440.203 122.655 441.725C120.421 443.316 118.272 444.809 116.217 446.005C114.408 447.093 112.485 447.962 110.485 448.595C109.138 449.023 107.742 449.255 106.334 449.287C105.821 449.306 105.307 449.287 104.796 449.232H105.196C105.575 449.252 105.955 449.252 106.334 449.232C107.729 449.166 109.111 448.911 110.443 448.475C112.419 447.823 114.32 446.947 116.112 445.863C118.156 444.655 120.326 443.163 122.529 441.571C124.615 440.043 126.786 438.643 129.03 437.379C130.866 436.347 132.82 435.562 134.846 435.041C136.224 434.694 137.643 434.554 139.06 434.624C139.565 434.634 140.068 434.678 140.567 434.756V434.756Z" fill="#263238"/>
<path d="M160.165 441.604L159.375 441.429C158.618 441.265 157.85 441.166 157.078 441.132C155.858 441.064 154.635 441.167 153.443 441.44C152.696 441.604 151.963 441.832 151.251 442.12C150.438 442.362 149.724 442.875 149.217 443.58C148.993 443.997 148.906 444.479 148.969 444.952C149.032 445.425 149.241 445.865 149.565 446.203C150.257 446.975 151.128 447.55 152.094 447.871C154.235 448.591 156.532 448.64 158.7 448.014C159.882 447.72 161.038 447.323 162.156 446.828C163.345 446.378 164.455 445.73 165.444 444.908C165.945 444.483 166.351 443.95 166.635 443.346C166.919 442.741 167.073 442.08 167.087 441.407C167.043 440.008 166.511 438.674 165.591 437.653C164.684 436.61 163.517 435.85 162.219 435.458C160.959 435.09 159.645 434.964 158.342 435.085C155.87 435.38 153.447 436.015 151.135 436.973C147.167 438.465 143.325 440.301 139.65 442.46C137.175 443.917 134.776 445.511 132.464 447.234C131.643 447.849 131.021 448.332 130.599 448.661C130.178 448.99 129.936 449.166 129.936 449.166C129.936 449.166 130.789 448.409 132.412 447.158C134.713 445.409 137.105 443.793 139.577 442.318C143.245 440.13 147.087 438.275 151.061 436.775C153.389 435.807 155.831 435.165 158.321 434.866C159.652 434.745 160.994 434.871 162.283 435.239C163.61 435.631 164.812 436.389 165.76 437.434C166.716 438.496 167.267 439.885 167.309 441.341C167.293 442.046 167.13 442.739 166.832 443.372C166.534 444.005 166.107 444.563 165.581 445.006C164.576 445.844 163.448 446.507 162.24 446.971C161.109 447.46 159.943 447.856 158.753 448.156C156.544 448.782 154.209 448.724 152.031 447.992C151.039 447.653 150.147 447.056 149.439 446.258C149.108 445.863 148.889 445.38 148.806 444.864C148.733 444.365 148.834 443.854 149.091 443.426C149.616 442.695 150.356 442.163 151.198 441.912C151.918 441.63 152.658 441.406 153.411 441.242C154.614 440.99 155.842 440.898 157.067 440.968C157.845 441.014 158.617 441.131 159.375 441.319C159.944 441.516 160.165 441.604 160.165 441.604Z" fill="#263238"/>
<path d="M183.756 449.089C183.756 449.089 183.756 448.804 183.756 448.288C183.799 447.557 183.799 446.824 183.756 446.093C183.605 443.686 182.908 441.35 181.722 439.278C180.516 437.218 178.768 435.561 176.686 434.504C175.814 434.09 174.903 433.773 173.968 433.56C174.932 433.649 175.874 433.917 176.749 434.35C178.887 435.387 180.683 437.06 181.912 439.157C183.118 441.258 183.806 443.637 183.914 446.082C183.988 447.087 183.935 448.098 183.756 449.089V449.089Z" fill="#263238"/>
<path d="M214.459 448.946C212.965 448.734 211.486 448.415 210.034 447.992C208.451 447.548 206.892 447.013 205.366 446.389C203.508 445.601 201.696 444.7 199.94 443.689C196.765 441.818 193.803 439.58 191.11 437.017C190.057 436.029 189.277 435.195 188.75 434.591L188.139 433.9C188.002 433.746 187.939 433.659 187.939 433.659C187.939 433.659 188.023 433.724 188.171 433.878L188.813 434.536C189.351 435.118 190.173 435.93 191.205 436.896C195.41 440.835 200.236 443.987 205.472 446.214C206.985 446.846 208.529 447.396 210.097 447.86C211.435 448.255 212.542 448.529 213.258 448.694L214.143 448.881C214.251 448.889 214.357 448.911 214.459 448.946V448.946Z" fill="#263238"/>
<path d="M236.027 444.622L235.732 444.48C235.543 444.381 235.29 444.205 234.921 444.03C233.903 443.512 232.846 443.083 231.76 442.746C230.153 442.248 228.511 441.881 226.85 441.648C224.985 441.363 222.909 441.176 220.739 440.88C216.398 440.32 212.52 438.97 210.202 437.181C209.268 436.508 208.418 435.716 207.674 434.822C207.168 434.174 206.926 433.79 206.926 433.79C206.926 433.79 207.01 433.867 207.147 434.032C207.284 434.196 207.463 434.46 207.737 434.767C208.502 435.629 209.361 436.395 210.297 437.05C212.626 438.784 216.461 440.09 220.834 440.649C222.994 440.946 225.048 441.143 226.945 441.44C228.611 441.666 230.257 442.033 231.865 442.537C232.957 442.887 234.016 443.343 235.026 443.898C235.627 444.359 236.027 444.622 236.027 444.622Z" fill="#263238"/>
</svg>
