<svg width="230" height="42" viewBox="0 0 230 42" fill="none" xmlns="http://www.w3.org/2000/svg">
<path d="M20.7951 23.92C19.9418 23.92 19.5151 23.4933 19.5151 22.64V19.504C19.5151 18.6507 19.0885 18.224 18.2351 18.224H13.9151C13.0618 18.224 12.6351 18.6507 12.6351 19.504V34.096C12.6351 34.9493 13.0618 35.376 13.9151 35.376H18.2351C19.0885 35.376 19.5151 34.9493 19.5151 34.096V30.704C19.5151 29.8507 19.0885 29.424 18.2351 29.424H17.4671C16.6138 29.424 16.1871 28.9973 16.1871 28.144V27.792C16.1871 26.9387 16.6138 26.512 17.4671 26.512H21.1151C21.9685 26.512 22.3951 26.9387 22.3951 27.792V35.024C22.3951 35.6427 22.1818 36.176 21.7551 36.624L20.7311 37.648C20.3045 38.0747 19.7818 38.288 19.1631 38.288H12.9871C12.3471 38.288 11.8138 38.0747 11.3871 37.648L10.3631 36.624C9.93646 36.1973 9.72312 35.6747 9.72312 35.056V18.576C9.72312 17.9573 9.93646 17.4347 10.3631 17.008L11.4191 15.952C11.8458 15.5253 12.3685 15.312 12.9871 15.312H19.1631C19.7818 15.312 20.3045 15.536 20.7311 15.984L21.7551 17.008C22.1818 17.4347 22.3951 17.9573 22.3951 18.576V22.64C22.3951 23.4933 21.9685 23.92 21.1151 23.92H20.7951ZM35.6781 16.528C35.6781 15.6747 36.1048 15.248 36.9581 15.248H37.3101C38.1635 15.248 38.5901 15.6747 38.5901 16.528V34.992C38.5901 35.6107 38.3768 36.144 37.9501 36.592L36.9261 37.616C36.4995 38.0427 35.9768 38.256 35.3581 38.256H29.1821C28.5635 38.256 28.0408 38.0427 27.6141 37.616L26.5581 36.56C26.1315 36.1333 25.9181 35.6107 25.9181 34.992V16.528C25.9181 15.6747 26.3448 15.248 27.1981 15.248H27.5501C28.4035 15.248 28.8301 15.6747 28.8301 16.528V34.064C28.8301 34.9173 29.2568 35.344 30.1101 35.344H34.3981C35.2515 35.344 35.6781 34.9173 35.6781 34.064V16.528ZM54.9771 38.288C54.2305 38.288 53.7718 37.904 53.6011 37.136L52.8011 33.296C52.6305 32.528 52.1718 32.144 51.4251 32.144H46.5931C45.8465 32.144 45.3878 32.528 45.2171 33.296L44.4171 37.136C44.2465 37.904 43.7878 38.288 43.0411 38.288H42.6571C42.2731 38.288 41.9745 38.192 41.7611 38C41.5691 37.808 41.4731 37.552 41.4731 37.232C41.4731 37.0827 41.4838 36.9653 41.5051 36.88L45.5691 16.464C45.7398 15.696 46.1985 15.312 46.9451 15.312H50.9771C51.7238 15.312 52.1825 15.696 52.3531 16.464L56.5131 36.88C56.5345 36.9653 56.5451 37.0933 56.5451 37.264C56.5451 37.9467 56.1505 38.288 55.3611 38.288H54.9771ZM48.9611 18.224C48.4918 18.224 48.1718 18.608 48.0011 19.376L46.3051 27.856C46.2838 27.9413 46.2731 28.0587 46.2731 28.208C46.2731 28.528 46.3691 28.784 46.5611 28.976C46.7745 29.168 47.0731 29.264 47.4571 29.264H50.5291C51.3185 29.264 51.7131 28.9227 51.7131 28.24C51.7131 28.0693 51.7025 27.9413 51.6811 27.856L49.9211 19.376C49.7505 18.608 49.4305 18.224 48.9611 18.224ZM70.4731 24.208C69.6198 24.208 69.1931 23.7813 69.1931 22.928V19.472C69.1931 18.6187 68.7665 18.192 67.9131 18.192H63.6251C62.7718 18.192 62.3451 18.6187 62.3451 19.472V34.096C62.3451 34.9493 62.7718 35.376 63.6251 35.376H67.9131C68.7665 35.376 69.1931 34.9493 69.1931 34.096V30.96C69.1931 30.1067 69.6198 29.68 70.4731 29.68H70.8251C71.6785 29.68 72.1051 30.1067 72.1051 30.96V35.024C72.1051 35.6427 71.8918 36.1653 71.4651 36.592L70.4091 37.648C69.9825 38.0747 69.4598 38.288 68.8411 38.288H62.6971C62.0785 38.288 61.5558 38.0747 61.1291 37.648L60.0731 36.592C59.6465 36.1653 59.4331 35.6427 59.4331 35.024V18.544C59.4331 17.9253 59.6465 17.4027 60.0731 16.976L61.1291 15.92C61.5558 15.4933 62.0785 15.28 62.6971 15.28H68.8411C69.4598 15.28 69.9825 15.4933 70.4091 15.92L71.4651 16.976C71.8918 17.4027 72.1051 17.9253 72.1051 18.544V22.928C72.1051 23.7813 71.6785 24.208 70.8251 24.208H70.4731ZM122.544 35.184C122.309 35.9093 121.829 36.272 121.104 36.272H119.856C119.088 36.272 118.597 35.92 118.384 35.216L116.368 28.816C116.283 28.5813 116.165 28.4 116.016 28.272C115.888 28.144 115.749 28.08 115.6 28.08C115.408 28.08 115.248 28.1653 115.12 28.336C114.992 28.5067 114.928 28.7413 114.928 29.04V36.976C114.928 37.8293 114.501 38.256 113.648 38.256H113.328C112.475 38.256 112.048 37.8293 112.048 36.976V16.592C112.048 15.7387 112.475 15.312 113.328 15.312H113.808C114.555 15.312 115.035 15.664 115.248 16.368L119.6 30.288C119.685 30.5867 119.803 30.8107 119.952 30.96C120.101 31.1093 120.251 31.184 120.4 31.184C120.571 31.184 120.731 31.1093 120.88 30.96C121.029 30.7893 121.147 30.5547 121.232 30.256L125.328 16.4C125.563 15.6747 126.043 15.312 126.768 15.312H127.312C128.165 15.312 128.592 15.7387 128.592 16.592V36.976C128.592 37.8293 128.165 38.256 127.312 38.256H126.992C126.139 38.256 125.712 37.8293 125.712 36.976V29.392C125.712 29.0933 125.648 28.8693 125.52 28.72C125.392 28.5493 125.232 28.464 125.04 28.464C124.699 28.464 124.453 28.6987 124.304 29.168L122.544 35.184ZM144.982 38.288C144.235 38.288 143.777 37.904 143.606 37.136L142.806 33.296C142.635 32.528 142.177 32.144 141.43 32.144H136.598C135.851 32.144 135.393 32.528 135.222 33.296L134.422 37.136C134.251 37.904 133.793 38.288 133.046 38.288H132.662C132.278 38.288 131.979 38.192 131.766 38C131.574 37.808 131.478 37.552 131.478 37.232C131.478 37.0827 131.489 36.9653 131.51 36.88L135.574 16.464C135.745 15.696 136.203 15.312 136.95 15.312H140.982C141.729 15.312 142.187 15.696 142.358 16.464L146.518 36.88C146.539 36.9653 146.55 37.0933 146.55 37.264C146.55 37.9467 146.155 38.288 145.366 38.288H144.982ZM138.966 18.224C138.497 18.224 138.177 18.608 138.006 19.376L136.31 27.856C136.289 27.9413 136.278 28.0587 136.278 28.208C136.278 28.528 136.374 28.784 136.566 28.976C136.779 29.168 137.078 29.264 137.462 29.264H140.534C141.323 29.264 141.718 28.9227 141.718 28.24C141.718 28.0693 141.707 27.9413 141.686 27.856L139.926 19.376C139.755 18.608 139.435 18.224 138.966 18.224ZM148.798 15.312C149.481 15.312 149.993 15.6107 150.334 16.208L154.014 22.576C154.355 23.1733 154.59 23.472 154.718 23.472C154.867 23.472 155.102 23.1733 155.422 22.576L159.038 16.208C159.358 15.6107 159.87 15.312 160.574 15.312H160.766C161.107 15.312 161.374 15.3973 161.566 15.568C161.779 15.7173 161.886 15.9093 161.886 16.144C161.886 16.3787 161.811 16.6133 161.662 16.848L156.606 25.648C156.329 26.1387 156.19 26.672 156.19 27.248V37.04C156.19 37.8933 155.763 38.32 154.91 38.32H154.558C153.705 38.32 153.278 37.8933 153.278 37.04V27.248C153.278 26.672 153.139 26.1387 152.862 25.648L147.742 16.848C147.593 16.6133 147.518 16.368 147.518 16.112C147.518 15.8773 147.614 15.6853 147.806 15.536C147.998 15.3867 148.265 15.312 148.606 15.312H148.798ZM176.341 38.288C175.594 38.288 175.136 37.904 174.965 37.136L174.165 33.296C173.994 32.528 173.536 32.144 172.789 32.144H167.957C167.21 32.144 166.752 32.528 166.581 33.296L165.781 37.136C165.61 37.904 165.152 38.288 164.405 38.288H164.021C163.637 38.288 163.338 38.192 163.125 38C162.933 37.808 162.837 37.552 162.837 37.232C162.837 37.0827 162.848 36.9653 162.869 36.88L166.933 16.464C167.104 15.696 167.562 15.312 168.309 15.312H172.341C173.088 15.312 173.546 15.696 173.717 16.464L177.877 36.88C177.898 36.9653 177.909 37.0933 177.909 37.264C177.909 37.9467 177.514 38.288 176.725 38.288H176.341ZM170.325 18.224C169.856 18.224 169.536 18.608 169.365 19.376L167.669 27.856C167.648 27.9413 167.637 28.0587 167.637 28.208C167.637 28.528 167.733 28.784 167.925 28.976C168.138 29.168 168.437 29.264 168.821 29.264H171.893C172.682 29.264 173.077 28.9227 173.077 28.24C173.077 28.0693 173.066 27.9413 173.045 27.856L171.285 19.376C171.114 18.608 170.794 18.224 170.325 18.224Z" fill="white"/>
<path d="M180.727 21.9297H178.773V20.5547H184.133V21.9297H182.18V33H180.727V21.9297ZM186.008 20.3984C186.898 20.362 187.674 20.4401 188.336 20.6328C188.997 20.8255 189.544 21.1146 189.977 21.5C190.409 21.8802 190.732 22.3438 190.945 22.8906C191.159 23.4375 191.266 24.0443 191.266 24.7109C191.266 25.487 191.125 26.1771 190.844 26.7812C190.562 27.3854 190.13 27.8776 189.547 28.2578L191.711 33H190.07L188.289 28.8047C188.029 28.8776 187.753 28.9323 187.461 28.9688V33H186.008V20.3984ZM187.461 27.4922C187.794 27.4609 188.102 27.3828 188.383 27.2578C188.664 27.1328 188.906 26.9557 189.109 26.7266C189.312 26.4922 189.471 26.2083 189.586 25.875C189.701 25.5417 189.758 25.1536 189.758 24.7109C189.758 24.2682 189.701 23.8802 189.586 23.5469C189.471 23.2135 189.312 22.9323 189.109 22.7031C188.906 22.4688 188.664 22.2891 188.383 22.1641C188.102 22.0391 187.794 21.9609 187.461 21.9297V27.4922ZM195.852 20.1719L199.469 33H197.906L197.359 30.9297H194.336L193.797 33H192.234L195.852 20.1719ZM197 29.5547L196.164 26.3438L195.844 24.8594L195.539 26.3438L194.695 29.5547H197ZM199.938 20.5547H201.5L203.219 27.2109L203.547 28.7031L203.891 27.2109L205.609 20.5547H207.172L203.555 33.3828L199.938 20.5547ZM208.727 20.5547H212.914V21.9297H210.18V26.7109H212.523V28.0859H210.18V31.625H212.914V33H208.727V20.5547ZM215.18 20.5547H216.633V31.6406H219.844V33H215.18V20.5547ZM221.383 31.1328C221.638 31.2839 221.904 31.4193 222.18 31.5391C222.461 31.6589 222.768 31.7188 223.102 31.7188C223.305 31.7188 223.5 31.6901 223.688 31.6328C223.875 31.5755 224.039 31.487 224.18 31.3672C224.32 31.2474 224.432 31.0964 224.516 30.9141C224.599 30.7266 224.641 30.5052 224.641 30.25C224.641 30.0781 224.617 29.901 224.57 29.7188C224.529 29.5365 224.456 29.3411 224.352 29.1328C224.253 28.9193 224.12 28.6875 223.953 28.4375C223.792 28.1875 223.589 27.9089 223.344 27.6016L222.336 26.3281C222.086 26.0104 221.872 25.7083 221.695 25.4219C221.523 25.1354 221.383 24.862 221.273 24.6016C221.164 24.3359 221.083 24.0833 221.031 23.8438C220.984 23.599 220.961 23.3594 220.961 23.125C220.961 22.7344 221.023 22.375 221.148 22.0469C221.273 21.7135 221.456 21.4271 221.695 21.1875C221.935 20.9427 222.224 20.7526 222.562 20.6172C222.906 20.4818 223.294 20.4141 223.727 20.4141C224.07 20.4141 224.417 20.4609 224.766 20.5547C225.115 20.6432 225.456 20.7865 225.789 20.9844L225.164 22.1953C224.982 22.0859 224.784 21.9922 224.57 21.9141C224.362 21.8307 224.13 21.7891 223.875 21.7891C223.448 21.7891 223.107 21.9115 222.852 22.1562C222.596 22.3958 222.469 22.737 222.469 23.1797C222.469 23.2995 222.482 23.4245 222.508 23.5547C222.534 23.6797 222.578 23.8177 222.641 23.9688C222.708 24.1198 222.797 24.2865 222.906 24.4688C223.021 24.651 223.164 24.8568 223.336 25.0859L224.797 27.0078C224.984 27.2578 225.161 27.5026 225.328 27.7422C225.495 27.9766 225.638 28.2188 225.758 28.4688C225.878 28.7135 225.971 28.974 226.039 29.25C226.112 29.5208 226.148 29.8151 226.148 30.1328C226.148 30.6016 226.073 31.0234 225.922 31.3984C225.771 31.7682 225.56 32.0833 225.289 32.3438C225.018 32.6042 224.695 32.8047 224.32 32.9453C223.951 33.0807 223.544 33.1484 223.102 33.1484C222.643 33.1484 222.206 33.0807 221.789 32.9453C221.372 32.8099 221.013 32.638 220.711 32.4297L221.383 31.1328Z" fill="white"/>
<path d="M102.99 35.2372C101.79 34.2176 101.027 31.9928 100.777 31.0741C101.013 31.373 102.151 32.6644 103.94 33.6483C105.73 34.6321 108.387 35.138 109.514 35.2318C108.483 35.8426 103.557 35.6987 102.99 35.2372Z" fill="url(#paint0_linear_238_7515)"/>
<path d="M105.551 31.0964C104.636 30.9714 101.529 30.0594 100.563 29.7208L100.731 31.1461C101.485 31.9383 103.148 33.4994 103.771 33.4058C105.654 33.5209 109.349 31.5208 110.961 30.5063C109.67 30.9589 106.74 31.259 105.551 31.0964Z" fill="url(#paint1_linear_238_7515)"/>
<path d="M110.469 25.9188C106.872 28.0168 102.209 28.5558 100.597 28.4073L100.611 29.8681C101.457 30.2342 103.393 30.8976 104.374 30.6222C105.92 30.1881 109.218 27.6392 110.469 25.9188Z" fill="url(#paint2_linear_238_7515)"/>
<path d="M92.8424 37.6628C92.192 33.4829 91.5751 24.4986 92.159 20.0348L91.0892 19.9694C90.5744 21.5725 89.4887 25.4956 88.8205 28.2158C88.1523 30.936 91.1675 35.6912 92.8424 37.6628Z" fill="url(#paint3_linear_238_7515)"/>
<path d="M78.636 35.3854C79.2997 32.8655 83.7552 23.9293 86.5479 20.2969L84.8558 20.5303C84.2 20.8556 80.0482 25.8514 78.4577 27.6707C77.4852 30.9593 78.3568 33.9234 78.636 35.3854Z" fill="url(#paint4_linear_238_7515)"/>
<path d="M74.5282 33.4972C76.752 29.7775 82.3876 22.7502 85.0062 20.4971C83.1604 20.498 78.7843 22.0008 77.0473 23.1998C74.135 29.2581 74.4692 32.4829 74.5282 33.4972Z" fill="url(#paint5_linear_238_7515)"/>
<path d="M82.1761 39.7698C81.9818 36.9489 86.5485 25.1112 88.884 19.9435L86.3359 20.2855C84.9783 22.0617 82.2114 26.3559 81.1689 29.2868C80.1263 32.2177 81.4245 37.7624 82.1761 39.7698Z" fill="url(#paint6_linear_238_7515)"/>
<path d="M87.0429 40.2434C86.7506 36.3549 89.7026 24.5667 91.2849 19.6449L88.9078 19.9113C87.151 23.2058 85.3218 27.6404 84.6707 29.6694C84.3289 34.1585 85.909 39.3206 87.0429 40.2434Z" fill="url(#paint7_linear_238_7515)"/>
<path d="M99.808 8.95037C99.4876 7.1864 101.479 6.10532 102.421 6.13793C101.808 4.90854 100.073 4.99612 99.4078 5.24247C96.9592 3.93682 95.0301 4.97232 94.4364 5.54494C91.4882 8.62139 90.6204 19.9406 94.0753 28.9262C97.027 36.6029 104.224 38.9574 107.708 38.2496C102.262 35.8578 100.523 31.6687 100.74 28.9818C100.749 28.0765 101.25 24.0478 101.717 22.2272C102.587 18.8382 102.51 14.6679 101.305 12.5307C100.932 11.869 100.11 10.2266 99.808 8.95037Z" fill="url(#paint8_linear_238_7515)"/>
<path d="M97.9276 7.87C99.0287 6.02822 101.663 5.70232 102.482 6.18809C101.868 4.9587 99.9757 4.93786 99.3109 5.18421C96.8623 3.87856 94.9281 5.07095 94.3344 5.64357C91.3862 8.72002 90.6811 19.9907 94.136 28.9763C97.0877 36.6531 104.482 39.0467 107.795 38.1801C102.346 37.5016 99.1599 33.3335 97.8652 30.528C97.2662 29.23 96.3939 26.1632 95.9694 23.8313C95.3495 20.4262 96.0227 14.6141 96.4709 12.1603C96.8806 9.91692 96.8265 9.71178 97.9276 7.87Z" fill="url(#paint9_linear_238_7515)"/>
<path d="M89.0863 16.0324C99.8251 14.8083 99.9861 13.3073 100.115 9.97614C102.182 13.2694 102.543 16.623 102.381 17.8335C100.662 21.2441 94.2254 21.3601 91.2223 20.9919C80.2048 19.1653 71.9997 27.1971 71.1082 28.2969C75.5729 18.5737 84.945 16.5044 89.0863 16.0324Z" fill="url(#paint10_linear_238_7515)"/>
<path d="M89.0785 16.0216C99.8173 14.7976 99.9783 13.2966 100.107 9.9654C102.174 13.2587 101.432 14.4261 101.151 14.8956C98.9563 18.048 94.7234 18.2818 93.8274 18.1687C85.7851 17.1529 75.5759 21.2453 71.1004 28.2861C75.565 18.5629 84.9372 16.4937 89.0785 16.0216Z" fill="url(#paint11_linear_238_7515)"/>
<path d="M101.982 24.5965C101.224 24.0231 99.6877 21.4591 99.0754 20.4059L97.0182 20.8791C97.1329 21.3303 97.4918 22.3275 98.0104 22.7066C98.6586 23.1805 102.928 25.3132 101.982 24.5965Z" fill="url(#paint12_linear_238_7515)"/>
<path d="M100.523 27.1133C100.046 26.7248 97.9933 22.7636 97.0199 20.8798L94.5317 21.1095C94.6357 21.6774 94.9817 22.6568 95.7701 24.1575C97.3045 26.2652 101.12 27.599 100.523 27.1133Z" fill="url(#paint13_linear_238_7515)"/>
<path d="M98.6333 31.3199L94.5042 21.0877L93.421 21.1188L95.3511 28.6486C96.5679 30.412 98.1556 31.2533 98.6333 31.3199Z" fill="url(#paint14_linear_238_7515)"/>
<path d="M97.9056 34.1606C96.3495 31.7775 94.3345 24.4542 93.4485 21.1383L92.0321 21.0592C91.8404 22.2453 91.6367 25.3114 91.8777 27.6979C92.1188 30.0844 95.6607 32.8704 97.9056 34.1606Z" fill="url(#paint15_linear_238_7515)"/>
<defs>
<linearGradient id="paint0_linear_238_7515" x1="99.8356" y1="32.7235" x2="111.442" y2="35.2993" gradientUnits="userSpaceOnUse">
<stop offset="0.0911659" stop-color="#07559D"/>
<stop offset="0.5625" stop-color="#199FDE"/>
</linearGradient>
<linearGradient id="paint1_linear_238_7515" x1="98.9926" y1="31.2345" x2="114.078" y2="32.396" gradientUnits="userSpaceOnUse">
<stop offset="0.109375" stop-color="#034884"/>
<stop offset="0.438029" stop-color="#127BBB"/>
</linearGradient>
<linearGradient id="paint2_linear_238_7515" x1="99.5452" y1="29.0542" x2="115.514" y2="27.8024" gradientUnits="userSpaceOnUse">
<stop stop-color="#024990"/>
<stop offset="0.744792" stop-color="#1496E7"/>
</linearGradient>
<linearGradient id="paint3_linear_238_7515" x1="90.6074" y1="18.7721" x2="92.4535" y2="38.713" gradientUnits="userSpaceOnUse">
<stop stop-color="#611278"/>
<stop offset="1" stop-color="#AA4A9B"/>
</linearGradient>
<linearGradient id="paint4_linear_238_7515" x1="77.7103" y1="28.9951" x2="90.5774" y2="20.2064" gradientUnits="userSpaceOnUse">
<stop stop-color="#F6AE52"/>
<stop offset="0.401042" stop-color="#DA3E6B"/>
</linearGradient>
<linearGradient id="paint5_linear_238_7515" x1="74.4006" y1="26.7364" x2="85.3009" y2="22.457" gradientUnits="userSpaceOnUse">
<stop offset="0.0729167" stop-color="#F7B252"/>
<stop offset="0.442708" stop-color="#E46A63"/>
</linearGradient>
<linearGradient id="paint6_linear_238_7515" x1="79.5336" y1="37.6729" x2="92.3036" y2="19.507" gradientUnits="userSpaceOnUse">
<stop stop-color="#E8649F"/>
<stop offset="1" stop-color="#BA225F"/>
</linearGradient>
<linearGradient id="paint7_linear_238_7515" x1="92.7725" y1="13.447" x2="80.105" y2="43.1899" gradientUnits="userSpaceOnUse">
<stop offset="0.0416667" stop-color="#BA225F"/>
<stop offset="0.991986" stop-color="#E94D87"/>
</linearGradient>
<linearGradient id="paint8_linear_238_7515" x1="99.8433" y1="3.84517" x2="106.31" y2="41.8694" gradientUnits="userSpaceOnUse">
<stop stop-color="#CD544F"/>
<stop offset="0.510417" stop-color="#A30742"/>
<stop offset="1" stop-color="#9C033C"/>
</linearGradient>
<linearGradient id="paint9_linear_238_7515" x1="100.201" y1="1.02365" x2="100.357" y2="40.5973" gradientUnits="userSpaceOnUse">
<stop offset="0.0885417" stop-color="#F09B54"/>
<stop offset="0.666667" stop-color="#D7316B"/>
<stop offset="1" stop-color="#D22371"/>
</linearGradient>
<linearGradient id="paint10_linear_238_7515" x1="71.6533" y1="24.6604" x2="102.675" y2="20.6753" gradientUnits="userSpaceOnUse">
<stop stop-color="#BE20D7"/>
<stop offset="0.494792" stop-color="#59279F"/>
<stop offset="1" stop-color="#102C76"/>
</linearGradient>
<linearGradient id="paint11_linear_238_7515" x1="77.2613" y1="17.7316" x2="99.4968" y2="16.7255" gradientUnits="userSpaceOnUse">
<stop stop-color="#BE20D7"/>
<stop offset="0.458333" stop-color="#8A2BC8"/>
<stop offset="1" stop-color="#1D4099"/>
</linearGradient>
<linearGradient id="paint12_linear_238_7515" x1="97.2445" y1="20.5005" x2="103.933" y2="25.1337" gradientUnits="userSpaceOnUse">
<stop stop-color="#014A8C"/>
<stop offset="1" stop-color="#2C97B8"/>
</linearGradient>
<linearGradient id="paint13_linear_238_7515" x1="95.4683" y1="19.6171" x2="102.829" y2="27.7311" gradientUnits="userSpaceOnUse">
<stop offset="0.385417" stop-color="#025093"/>
<stop offset="0.895833" stop-color="#1176B8"/>
</linearGradient>
<linearGradient id="paint14_linear_238_7515" x1="94.1983" y1="19.8187" x2="98.9406" y2="34.1699" gradientUnits="userSpaceOnUse">
<stop offset="0.348958" stop-color="#1B368A"/>
<stop offset="0.541667" stop-color="#6B2BB0"/>
</linearGradient>
<linearGradient id="paint15_linear_238_7515" x1="92.4246" y1="19.6607" x2="100.738" y2="35.8367" gradientUnits="userSpaceOnUse">
<stop stop-color="#50026F"/>
<stop offset="1" stop-color="#A44697"/>
</linearGradient>
</defs>
</svg>
