<svg width="526" height="547" viewBox="0 0 526 547" fill="none" xmlns="http://www.w3.org/2000/svg">
<g filter="url(#filter0_d_143_627)">
<path d="M286.833 393.726C286.554 379.04 276.163 362.05 271.524 355.57C272.22 358.93 274.586 374.432 271.524 393.726C268.463 413.02 257.723 437.041 252.389 446.64C261.782 441.24 286.833 400.565 286.833 393.726Z" fill="url(#paint0_linear_143_627)"/>
<path d="M246.474 394.446C250.489 386.414 260.97 356.77 263.87 347.291L272.22 355.57C273.379 365.529 274.725 386.598 270.828 391.206C261.643 407.044 229.194 427.322 214.117 435.481C223.859 427.202 241.255 404.884 246.474 394.446Z" fill="url(#paint1_linear_143_627)"/>
<path d="M186.98 409.204C219.546 390.198 247.634 354.97 255.173 341.172L264.566 348.371C262.479 357.01 256.564 375.944 249.606 382.567C238.639 393.006 204.724 407.404 186.98 409.204Z" fill="url(#paint2_linear_143_627)"/>
<path d="M356.068 323.174C332.409 297.617 277.438 249.022 245.43 232.104L250.648 223.105C263.753 226.705 294.904 236.928 316.057 244.703C337.211 252.478 352.125 300.017 356.068 323.174Z" fill="url(#paint3_linear_143_627)"/>
<path d="M416.258 196.829C396.426 189.989 315.013 182.79 276.742 187.83L287.18 175.231C292.746 171.488 347.022 162.033 367.201 157.953C393.643 166.016 408.256 187.47 416.258 196.829Z" fill="url(#paint4_linear_143_627)"/>
<path d="M425.652 154.354C389.817 154.354 314.55 165.993 286.137 176.312C295.878 161.338 328.699 133.117 345.631 124.838C400.254 130.597 419.39 148.955 425.652 154.354Z" fill="url(#paint5_linear_143_627)"/>
<path d="M426.001 246.804C408.744 231.542 307.94 211.168 262.131 205.049L277.787 186.031C296.459 183.631 338.882 182.011 363.375 187.771C387.869 193.53 416.955 230.966 426.001 246.804Z" fill="url(#paint6_linear_143_627)"/>
<path d="M403.385 288.619C379.727 267.381 287.76 234.145 247.518 223.106L261.782 205.108C292.399 206.836 330.786 213.507 347.37 218.067C378.266 237.073 403.385 274.94 403.385 288.619Z" fill="url(#paint7_linear_143_627)"/>
<path d="M133.272 240.388C123.53 229.23 106.018 240.148 101.263 247.947C96.5315 237.005 106.25 223.35 111.353 219.151C115.806 192.946 132.692 182.315 139.534 180.275C175.022 171.276 252.956 219.151 292.967 290.782C327.149 351.98 304.448 421.807 281.485 446.644C294.706 390.851 276.73 356.415 258.175 345.136C252.26 340.817 223.511 325.333 209.247 320.294C182.694 310.914 156.072 290.058 148.58 269.905C146.261 263.666 139.952 249.027 133.272 240.388Z" fill="url(#paint8_linear_143_627)"/>
<path d="M136.184 219.871C118.44 219.871 102.435 239.664 101.263 248.668C96.5316 237.725 106.379 222.266 111.481 218.067C115.935 191.862 133.864 181.951 140.707 179.911C176.194 170.912 252.956 219.871 292.967 291.503C327.149 352.7 303.661 424.318 280.57 447C304.916 399.486 294.706 353.411 283.353 329.294C278.1 318.135 262.826 296.178 249.953 281.419C231.155 259.868 189.938 237.133 171.671 228.865C154.971 221.306 153.927 219.871 136.184 219.871Z" fill="url(#paint9_linear_143_627)"/>
<path d="M235.689 187.731C171.115 268.938 160.538 262.963 138.271 247.844C148.709 280.6 168.54 299.798 177.238 304.358C208.412 306.949 243.111 255.283 256.564 229.126C302.837 130.858 398.167 103.24 409.996 101.341C323.434 90.3987 260.591 156.415 235.689 187.731Z" fill="url(#paint10_linear_143_627)"/>
<path d="M235.689 187.601C171.115 268.807 160.538 262.832 138.271 247.714C148.709 280.469 160.19 280.11 164.713 280.11C196.722 277.59 220.563 244.375 224.555 236.555C260.391 166.363 340.76 103.37 409.996 101.211C323.434 90.2678 260.591 156.284 235.689 187.601Z" fill="url(#paint11_linear_143_627)"/>
<path d="M223.163 333.973C223.442 325.046 214.929 300.137 211.334 290.058L225.251 275.66C227.57 278.78 232.14 286.531 231.861 292.578C231.513 300.137 222.815 345.132 223.163 333.973Z" fill="url(#paint12_linear_143_627)"/>
<path d="M247.169 334.333C247.169 328.574 232.324 292.698 225.25 275.66L239.863 256.582C242.994 260.182 247.517 267.741 253.084 281.419C258.65 304.097 247.169 341.532 247.169 334.333Z" fill="url(#paint13_linear_143_627)"/>
<path d="M284.397 339.372L239.863 256.222L245.778 247.583L284.397 299.777C289.407 318.207 286.484 335.173 284.397 339.372Z" fill="url(#paint14_linear_143_627)"/>
<path d="M306.665 347.291C299.428 323.101 262.595 271.219 245.779 247.942L252.738 236.063C261.436 240.263 282.38 253.485 296.575 267.02C310.771 280.554 310.144 322.813 306.665 347.291Z" fill="url(#paint15_linear_143_627)"/>
</g>
<defs>
<filter id="filter0_d_143_627" x="0" y="0" width="526" height="547" filterUnits="userSpaceOnUse" color-interpolation-filters="sRGB">
<feFlood flood-opacity="0" result="BackgroundImageFix"/>
<feColorMatrix in="SourceAlpha" type="matrix" values="0 0 0 0 0 0 0 0 0 0 0 0 0 0 0 0 0 0 127 0" result="hardAlpha"/>
<feOffset/>
<feGaussianBlur stdDeviation="50"/>
<feComposite in2="hardAlpha" operator="out"/>
<feColorMatrix type="matrix" values="0 0 0 0 0.804167 0 0 0 0 0.703646 0 0 0 0 0.703646 0 0 0 0.05 0"/>
<feBlend mode="normal" in2="BackgroundImageFix" result="effect1_dropShadow_143_627"/>
<feBlend mode="normal" in="SourceGraphic" in2="effect1_dropShadow_143_627" result="shape"/>
</filter>
<linearGradient id="paint0_linear_143_627" x1="287.181" y1="355.93" x2="244.37" y2="463.3" gradientUnits="userSpaceOnUse">
<stop offset="0.0911659" stop-color="#07559D"/>
<stop offset="0.5625" stop-color="#199FDE"/>
</linearGradient>
<linearGradient id="paint1_linear_143_627" x1="281.961" y1="341.892" x2="205.162" y2="467.024" gradientUnits="userSpaceOnUse">
<stop offset="0.109375" stop-color="#034884"/>
<stop offset="0.438029" stop-color="#127BBB"/>
</linearGradient>
<linearGradient id="paint2_linear_143_627" x1="264.914" y1="335.773" x2="161.918" y2="449.646" gradientUnits="userSpaceOnUse">
<stop stop-color="#024990"/>
<stop offset="0.744792" stop-color="#1496E7"/>
</linearGradient>
<linearGradient id="paint3_linear_143_627" x1="245.43" y1="213.387" x2="374.657" y2="312.414" gradientUnits="userSpaceOnUse">
<stop stop-color="#611278"/>
<stop offset="1" stop-color="#AA4A9B"/>
</linearGradient>
<linearGradient id="paint4_linear_143_627" x1="379.726" y1="158.313" x2="247.903" y2="194.814" gradientUnits="userSpaceOnUse">
<stop stop-color="#F6AE52"/>
<stop offset="0.401042" stop-color="#DA3E6B"/>
</linearGradient>
<linearGradient id="paint5_linear_143_627" x1="382.51" y1="120.518" x2="288.456" y2="172.124" gradientUnits="userSpaceOnUse">
<stop offset="0.0729167" stop-color="#F7B252"/>
<stop offset="0.442708" stop-color="#E46A63"/>
</linearGradient>
<linearGradient id="paint6_linear_143_627" x1="426.349" y1="215.187" x2="242.945" y2="203.75" gradientUnits="userSpaceOnUse">
<stop stop-color="#E8649F"/>
<stop offset="1" stop-color="#BA225F"/>
</linearGradient>
<linearGradient id="paint7_linear_143_627" x1="199.505" y1="205.108" x2="453.815" y2="267.91" gradientUnits="userSpaceOnUse">
<stop offset="0.0416667" stop-color="#BA225F"/>
<stop offset="0.991986" stop-color="#E94D87"/>
</linearGradient>
<linearGradient id="paint8_linear_143_627" x1="100" y1="215.906" x2="337.71" y2="423.833" gradientUnits="userSpaceOnUse">
<stop stop-color="#CD544F"/>
<stop offset="0.510417" stop-color="#A30742"/>
<stop offset="1" stop-color="#9C033C"/>
</linearGradient>
<linearGradient id="paint9_linear_143_627" x1="79.8209" y1="205.108" x2="347.337" y2="380.234" gradientUnits="userSpaceOnUse">
<stop offset="0.0885417" stop-color="#F09B54"/>
<stop offset="0.666667" stop-color="#D7316B"/>
<stop offset="1" stop-color="#D22371"/>
</linearGradient>
<linearGradient id="paint10_linear_143_627" x1="383.554" y1="88.1218" x2="171.168" y2="297.231" gradientUnits="userSpaceOnUse">
<stop stop-color="#BE20D7"/>
<stop offset="0.494792" stop-color="#59279F"/>
<stop offset="1" stop-color="#102C76"/>
</linearGradient>
<linearGradient id="paint11_linear_143_627" x1="309.1" y1="100" x2="171.774" y2="264.252" gradientUnits="userSpaceOnUse">
<stop stop-color="#BE20D7"/>
<stop offset="0.458333" stop-color="#8A2BC8"/>
<stop offset="1" stop-color="#1D4099"/>
</linearGradient>
<linearGradient id="paint12_linear_143_627" x1="221.604" y1="275.66" x2="227.367" y2="351.583" gradientUnits="userSpaceOnUse">
<stop stop-color="#014A8C"/>
<stop offset="1" stop-color="#2C97B8"/>
</linearGradient>
<linearGradient id="paint13_linear_143_627" x1="225.25" y1="256.942" x2="256.327" y2="350.274" gradientUnits="userSpaceOnUse">
<stop offset="0.385417" stop-color="#025093"/>
<stop offset="0.895833" stop-color="#1176B8"/>
</linearGradient>
<linearGradient id="paint14_linear_143_627" x1="233.253" y1="247.583" x2="316.455" y2="342.338" gradientUnits="userSpaceOnUse">
<stop offset="0.348958" stop-color="#1B368A"/>
<stop offset="0.541667" stop-color="#6B2BB0"/>
</linearGradient>
<linearGradient id="paint15_linear_143_627" x1="241.604" y1="232.464" x2="326.67" y2="362.675" gradientUnits="userSpaceOnUse">
<stop stop-color="#50026F"/>
<stop offset="1" stop-color="#A44697"/>
</linearGradient>
</defs>
</svg>
