<svg width="221" height="38" viewBox="0 0 221 38" fill="none" xmlns="http://www.w3.org/2000/svg">
<path fill-rule="evenodd" clip-rule="evenodd" d="M200.611 1.32302L196.115 11.1476L186.06 12.7258C184.258 13.0118 183.535 15.4088 184.84 16.7799L192.12 24.4245L190.4 35.2223C190.089 37.172 191.998 38.6352 193.593 37.7211L202.59 32.6247L211.587 37.7211C213.182 38.6286 215.091 37.172 214.78 35.2223L213.057 24.4245L220.331 16.7799C221.642 15.4088 220.916 13.0118 219.111 12.7291L209.059 11.1508L204.563 1.32302C203.758 -0.42948 201.422 -0.452496 200.611 1.32302V1.32302Z" fill="#FFC300"/>
<path fill-rule="evenodd" clip-rule="evenodd" d="M108.524 1.32302L104.028 11.1476L93.9729 12.7258C92.1705 13.0118 91.4477 15.4088 92.753 16.7799L100.033 24.4245L98.3128 35.2223C98.0017 37.172 99.9109 38.6352 101.506 37.7211L110.503 32.6247L119.5 37.7211C121.095 38.6286 123.004 37.172 122.693 35.2223L120.97 24.4245L128.244 16.7799C129.555 15.4088 128.829 13.0118 127.024 12.7291L116.971 11.1508L112.476 1.32302C111.671 -0.42948 109.335 -0.452496 108.524 1.32302V1.32302Z" fill="#FFC300"/>
<path fill-rule="evenodd" clip-rule="evenodd" d="M154.567 1.32302L150.072 11.1476L140.017 12.7258C138.214 13.0118 137.491 15.4088 138.797 16.7799L146.076 24.4245L144.356 35.2223C144.045 37.172 145.954 38.6352 147.55 37.7211L156.546 32.6247L165.543 37.7211C167.138 38.6286 169.048 37.172 168.736 35.2223L167.013 24.4245L174.287 16.7799C175.599 15.4088 174.873 13.0118 173.067 12.7291L163.015 11.1508L158.52 1.32302C157.714 -0.42948 155.378 -0.452496 154.567 1.32302V1.32302Z" fill="#FFC300"/>
<path fill-rule="evenodd" clip-rule="evenodd" d="M16.4364 1.32302L11.941 11.1476L1.88583 12.7258C0.0834031 13.0118 -0.639399 15.4088 0.665915 16.7799L7.94579 24.4245L6.2257 35.2223C5.91462 37.172 7.82379 38.6352 9.41884 37.7211L18.4157 32.6247L27.4127 37.7211C29.0077 38.6286 30.9169 37.172 30.6058 35.2223L28.8827 24.4245L36.1564 16.7799C37.4678 15.4088 36.742 13.0118 34.9365 12.7291L24.8844 11.1508L20.389 1.32302C19.5838 -0.42948 17.2477 -0.452496 16.4364 1.32302V1.32302Z" fill="#FFC300"/>
<path fill-rule="evenodd" clip-rule="evenodd" d="M62.48 1.32302L57.9846 11.1476L47.9294 12.7258C46.127 13.0118 45.4042 15.4088 46.7095 16.7799L53.9893 24.4245L52.2693 35.2223C51.9582 37.172 53.8674 38.6352 55.4624 37.7211L64.4593 32.6247L73.4562 37.7211C75.0513 38.6286 76.9604 37.172 76.6494 35.2223L74.9262 24.4245L82.2 16.7799C83.5114 15.4088 82.7856 13.0118 80.9801 12.7291L70.9279 11.1508L66.4325 1.32302C65.6274 -0.42948 63.2912 -0.452496 62.48 1.32302V1.32302Z" fill="#FFC300"/>
</svg>
